<?xml version="1.0" encoding="UTF-8" standalone="no"?>
<!-- Created with Inkscape (http://www.inkscape.org/) -->

<svg
   width="48in"
   height="48in"
   viewBox="0 0 1219.2 1219.2"
   version="1.1"
   id="svg5"
   xml:space="preserve"
   inkscape:version="1.2.2 (732a01da63, 2022-12-09)"
   sodipodi:docname="playfield V2.svg"
   xmlns:inkscape="http://www.inkscape.org/namespaces/inkscape"
   xmlns:sodipodi="http://sodipodi.sourceforge.net/DTD/sodipodi-0.dtd"
   xmlns="http://www.w3.org/2000/svg"
   xmlns:svg="http://www.w3.org/2000/svg"><sodipodi:namedview
     id="namedview7"
     pagecolor="#ffffff"
     bordercolor="#000000"
     borderopacity="0.25"
     inkscape:showpageshadow="2"
     inkscape:pageopacity="0.0"
     inkscape:pagecheckerboard="0"
     inkscape:deskcolor="#d1d1d1"
     inkscape:document-units="mm"
     showgrid="false"
     inkscape:zoom="1.2938725"
     inkscape:cx="395.71133"
     inkscape:cy="333.88143"
     inkscape:window-width="2560"
     inkscape:window-height="1346"
     inkscape:window-x="-11"
     inkscape:window-y="-11"
     inkscape:window-maximized="1"
     inkscape:current-layer="g2124" /><defs
     id="defs2"><marker
       id="DistanceX"
       orient="auto"
       refX="0"
       refY="0"
       style="overflow:visible"><path
         d="M 3,-3 -3,3 M 0,-5 V 5"
         style="stroke:#000000;stroke-width:0.5"
         id="path1827" /></marker><pattern
       id="Hatch"
       patternUnits="userSpaceOnUse"
       width="8"
       height="8"
       x="0"
       y="0"><path
         d="M8 4 l-4,4"
         stroke="#000000"
         stroke-width="0.25"
         linecap="square"
         id="path1830" /><path
         d="M6 2 l-4,4"
         stroke="#000000"
         stroke-width="0.25"
         linecap="square"
         id="path1832" /><path
         d="M4 0 l-4,4"
         stroke="#000000"
         stroke-width="0.25"
         linecap="square"
         id="path1834" /></pattern><symbol
       id="*Model_Space" /><symbol
       id="*Paper_Space" /><symbol
       id="*Paper_Space0" /></defs><g
     inkscape:label="Layer 1"
     inkscape:groupmode="layer"
     id="layer1"><g
       inkscape:label="0"
       id="g2124"
       transform="matrix(0.26458333,0,0,0.26458333,12.423083,319.07563)"><path
         d="m 956.7874,1065.8268 a 5.6692915,5.6692915 0 0 0 -11.33858,0 5.6692915,5.6692915 0 0 0 11.33858,0 z"
         style="fill:none;stroke:#ff0000;stroke-width:0.07559055;stroke-linecap:round;stroke-opacity:1;stroke-dasharray:none"
         id="path1842" /><path
         d="m 62.362205,623.90212 a 5.6692915,5.6692915 0 0 0 -11.338583,0 5.6692915,5.6692915 0 0 0 11.338583,0 z"
         style="fill:none;stroke:#ff0000;stroke-width:0.07559055;stroke-linecap:round;stroke-opacity:1;stroke-dasharray:none"
         id="path1844" /><path
         d="m 43.464567,-1141.4173 a 5.6692915,5.6692915 0 0 0 -11.338583,0 5.6692915,5.6692915 0 0 0 11.338583,0 z"
         style="fill:none;stroke:#ff0000;stroke-width:0.07559055;stroke-linecap:round;stroke-opacity:1;stroke-dasharray:none"
         id="path1846" /><path
         d="m 1082.8346,-1141.4173 a 5.6692915,5.6692915 0 0 0 -11.3385,0 5.6692915,5.6692915 0 0 0 11.3385,0 z"
         style="fill:none;stroke:#ff0000;stroke-width:0.07559055;stroke-linecap:round;stroke-opacity:1;stroke-dasharray:none"
         id="path1848" /><path
         d="m 665.29134,-423.30709 a 3.874016,3.874016 0 0 0 -7.74803,0 3.874016,3.874016 0 0 0 7.74803,0 z"
         style="fill:none;stroke:#ff0000;stroke-width:0.07559055;stroke-linecap:round;stroke-opacity:1;stroke-dasharray:none"
         id="path1850" /><path
         d="m 400.72441,-423.30709 a 3.874016,3.874016 0 0 0 -7.74803,0 3.874016,3.874016 0 0 0 7.74803,0 z"
         style="fill:none;stroke:#ff0000;stroke-width:0.07559055;stroke-linecap:round;stroke-opacity:1;stroke-dasharray:none"
         id="path1852" /><path
         d="m 381.82677,-423.30709 a 3.874016,3.874016 0 0 0 -7.74803,0 3.874016,3.874016 0 0 0 7.74803,0 z"
         style="fill:none;stroke:#ff0000;stroke-width:0.07559055;stroke-linecap:round;stroke-opacity:1;stroke-dasharray:none"
         id="path1854" /><path
         style="fill:none;stroke:#ff0000;stroke-width:0.07559055;stroke-linecap:round;stroke-opacity:1;stroke-dasharray:none"
         d="m 411.969,-1179.21 v 113.38"
         id="path1856" /><path
         style="fill:none;stroke:#ff0000;stroke-width:0.07559055;stroke-linecap:round;stroke-opacity:1;stroke-dasharray:none"
         d="M 411.969,-1179.21 H 0"
         id="path1858" /><path
         style="fill:none;stroke:#ff0000;stroke-width:0.07559055;stroke-linecap:round;stroke-opacity:1;stroke-dasharray:none"
         d="m 0,-1179.21 v 226.769"
         id="path1860" /><path
         style="fill:none;stroke:#ff0000;stroke-width:0.07559055;stroke-linecap:round;stroke-opacity:1;stroke-dasharray:none"
         d="M 0,-952.441 H -16.4409"
         id="path1862" /><path
         d="M -16.440945,-952.44095 A 7.559055,7.559055 0 0 0 -24,-944.88189"
         style="fill:none;stroke:#ff0000;stroke-width:0.07559055;stroke-linecap:round;stroke-opacity:1;stroke-dasharray:none"
         id="path1864" /><path
         style="fill:none;stroke:#ff0000;stroke-width:0.07559055;stroke-linecap:round;stroke-opacity:1;stroke-dasharray:none"
         d="m -24,-944.882 v 173.858"
         id="path1866" /><path
         d="m -24,-771.02362 a 7.559055,7.559055 0 0 0 7.559055,7.55905"
         style="fill:none;stroke:#ff0000;stroke-width:0.07559055;stroke-linecap:round;stroke-opacity:1;stroke-dasharray:none"
         id="path1868" /><path
         style="fill:none;stroke:#ff0000;stroke-width:0.07559055;stroke-linecap:round;stroke-opacity:1;stroke-dasharray:none"
         d="M -16.4409,-763.465 H 0"
         id="path1870" /><path
         style="fill:none;stroke:#ff0000;stroke-width:0.07559055;stroke-linecap:round;stroke-opacity:1;stroke-dasharray:none"
         d="m 0,-763.465 v 226.772"
         id="path1872" /><path
         style="fill:none;stroke:#ff0000;stroke-width:0.07559055;stroke-linecap:round;stroke-opacity:1;stroke-dasharray:none"
         d="M 0,-536.693 H -16.4409"
         id="path1874" /><path
         d="M -16.440945,-536.69291 A 7.559055,7.559055 0 0 0 -24,-529.13386"
         style="fill:none;stroke:#ff0000;stroke-width:0.07559055;stroke-linecap:round;stroke-opacity:1;stroke-dasharray:none"
         id="path1876" /><path
         style="fill:none;stroke:#ff0000;stroke-width:0.07559055;stroke-linecap:round;stroke-opacity:1;stroke-dasharray:none"
         d="m -24,-529.134 v 173.858"
         id="path1878" /><path
         d="m -24,-355.27559 a 7.559055,7.559055 0 0 0 7.559055,7.55905"
         style="fill:none;stroke:#ff0000;stroke-width:0.07559055;stroke-linecap:round;stroke-opacity:1;stroke-dasharray:none"
         id="path1880" /><path
         style="fill:none;stroke:#ff0000;stroke-width:0.07559055;stroke-linecap:round;stroke-opacity:1;stroke-dasharray:none"
         d="M -16.4409,-347.717 H 0"
         id="path1882" /><path
         style="fill:none;stroke:#ff0000;stroke-width:0.07559055;stroke-linecap:round;stroke-opacity:1;stroke-dasharray:none"
         d="m 0,-347.717 v 226.772"
         id="path1884" /><path
         style="fill:none;stroke:#ff0000;stroke-width:0.07559055;stroke-linecap:round;stroke-opacity:1;stroke-dasharray:none"
         d="M 0,-120.945 H -16.4409"
         id="path1886" /><path
         d="M -16.440945,-120.94488 A 7.559055,7.559055 0 0 0 -24,-113.38583"
         style="fill:none;stroke:#ff0000;stroke-width:0.07559055;stroke-linecap:round;stroke-opacity:1;stroke-dasharray:none"
         id="path1888" /><path
         style="fill:none;stroke:#ff0000;stroke-width:0.07559055;stroke-linecap:round;stroke-opacity:1;stroke-dasharray:none"
         d="M -24,-113.386 V 60.4724"
         id="path1890" /><path
         d="m -24,60.472441 a 7.559055,7.559055 0 0 0 7.559055,7.559055"
         style="fill:none;stroke:#ff0000;stroke-width:0.07559055;stroke-linecap:round;stroke-opacity:1;stroke-dasharray:none"
         id="path1892" /><path
         style="fill:none;stroke:#ff0000;stroke-width:0.07559055;stroke-linecap:round;stroke-opacity:1;stroke-dasharray:none"
         d="M -16.4409,68.0315 H 0"
         id="path1894" /><path
         style="fill:none;stroke:#ff0000;stroke-width:0.07559055;stroke-linecap:round;stroke-opacity:1;stroke-dasharray:none"
         d="M 0,68.0315 V 294.803"
         id="path1896" /><path
         style="fill:none;stroke:#ff0000;stroke-width:0.07559055;stroke-linecap:round;stroke-opacity:1;stroke-dasharray:none"
         d="M 0,294.803 H -16.4409"
         id="path1898" /><path
         d="M -16.440945,294.80315 A 7.559055,7.559055 0 0 0 -24,302.36221"
         style="fill:none;stroke:#ff0000;stroke-width:0.07559055;stroke-linecap:round;stroke-opacity:1;stroke-dasharray:none"
         id="path1900" /><path
         style="fill:none;stroke:#ff0000;stroke-width:0.07559055;stroke-linecap:round;stroke-opacity:1;stroke-dasharray:none"
         d="M -24,302.362 V 476.22"
         id="path1902" /><path
         d="m -24,476.22047 a 7.559055,7.559055 0 0 0 7.559055,7.55906"
         style="fill:none;stroke:#ff0000;stroke-width:0.07559055;stroke-linecap:round;stroke-opacity:1;stroke-dasharray:none"
         id="path1904" /><path
         style="fill:none;stroke:#ff0000;stroke-width:0.07559055;stroke-linecap:round;stroke-opacity:1;stroke-dasharray:none"
         d="M -16.4409,483.78 H 0"
         id="path1906" /><path
         style="fill:none;stroke:#ff0000;stroke-width:0.07559055;stroke-linecap:round;stroke-opacity:1;stroke-dasharray:none"
         d="M 0,483.78 V 710.551"
         id="path1908" /><path
         style="fill:none;stroke:#ff0000;stroke-width:0.07559055;stroke-linecap:round;stroke-opacity:1;stroke-dasharray:none"
         d="M 0,710.551 H -16.4409"
         id="path1910" /><path
         d="M -16.440945,710.55118 A 7.559055,7.559055 0 0 0 -24,718.11024"
         style="fill:none;stroke:#ff0000;stroke-width:0.07559055;stroke-linecap:round;stroke-opacity:1;stroke-dasharray:none"
         id="path1912" /><path
         style="fill:none;stroke:#ff0000;stroke-width:0.07559055;stroke-linecap:round;stroke-opacity:1;stroke-dasharray:none"
         d="M -24,718.11 V 891.969"
         id="path1914" /><path
         d="m -24,891.9685 a 7.559055,7.559055 0 0 0 7.559055,7.55906"
         style="fill:none;stroke:#ff0000;stroke-width:0.07559055;stroke-linecap:round;stroke-opacity:1;stroke-dasharray:none"
         id="path1916" /><path
         style="fill:none;stroke:#ff0000;stroke-width:0.07559055;stroke-linecap:round;stroke-opacity:1;stroke-dasharray:none"
         d="M -16.4409,899.528 H 0"
         id="path1918" /><path
         style="fill:none;stroke:#ff0000;stroke-width:0.07559055;stroke-linecap:round;stroke-opacity:1;stroke-dasharray:none"
         d="M 0,899.528 V 1122.52"
         id="path1920" /><path
         style="fill:none;stroke:#ff0000;stroke-width:0.07559055;stroke-linecap:round;stroke-opacity:1;stroke-dasharray:none"
         d="M 0,1122.52 H 1114.96"
         id="path1922" /><path
         style="fill:none;stroke:#ff0000;stroke-width:0.07559055;stroke-linecap:round;stroke-opacity:1;stroke-dasharray:none"
         d="M 1114.96,1122.52 V 899.528"
         id="path1924" /><path
         style="fill:none;stroke:#ff0000;stroke-width:0.07559055;stroke-linecap:round;stroke-opacity:1;stroke-dasharray:none"
         d="m 1114.96,899.528 h 16.44"
         id="path1926" /><path
         d="m 1131.4016,899.52756 a 7.559055,7.559055 0 0 0 7.559,-7.55906"
         style="fill:none;stroke:#ff0000;stroke-width:0.07559055;stroke-linecap:round;stroke-opacity:1;stroke-dasharray:none"
         id="path1928" /><path
         style="fill:none;stroke:#ff0000;stroke-width:0.07559055;stroke-linecap:round;stroke-opacity:1;stroke-dasharray:none"
         d="M 1138.96,891.969 V 718.11"
         id="path1930" /><path
         d="m 1138.9606,718.11024 a 7.559055,7.559055 0 0 0 -7.559,-7.55906"
         style="fill:none;stroke:#ff0000;stroke-width:0.07559055;stroke-linecap:round;stroke-opacity:1;stroke-dasharray:none"
         id="path1932" /><path
         style="fill:none;stroke:#ff0000;stroke-width:0.07559055;stroke-linecap:round;stroke-opacity:1;stroke-dasharray:none"
         d="m 1131.4,710.551 h -16.44"
         id="path1934" /><path
         style="fill:none;stroke:#ff0000;stroke-width:0.07559055;stroke-linecap:round;stroke-opacity:1;stroke-dasharray:none"
         d="M 1114.96,710.551 V 483.78"
         id="path1936" /><path
         style="fill:none;stroke:#ff0000;stroke-width:0.07559055;stroke-linecap:round;stroke-opacity:1;stroke-dasharray:none"
         d="m 1114.96,483.78 h 16.44"
         id="path1938" /><path
         d="m 1131.4016,483.77953 a 7.559055,7.559055 0 0 0 7.559,-7.55906"
         style="fill:none;stroke:#ff0000;stroke-width:0.07559055;stroke-linecap:round;stroke-opacity:1;stroke-dasharray:none"
         id="path1940" /><path
         style="fill:none;stroke:#ff0000;stroke-width:0.07559055;stroke-linecap:round;stroke-opacity:1;stroke-dasharray:none"
         d="M 1138.96,476.22 V 302.362"
         id="path1942" /><path
         d="m 1138.9606,302.36221 a 7.559055,7.559055 0 0 0 -7.559,-7.55906"
         style="fill:none;stroke:#ff0000;stroke-width:0.07559055;stroke-linecap:round;stroke-opacity:1;stroke-dasharray:none"
         id="path1944" /><path
         style="fill:none;stroke:#ff0000;stroke-width:0.07559055;stroke-linecap:round;stroke-opacity:1;stroke-dasharray:none"
         d="m 1131.4,294.803 h -16.44"
         id="path1946" /><path
         style="fill:none;stroke:#ff0000;stroke-width:0.07559055;stroke-linecap:round;stroke-opacity:1;stroke-dasharray:none"
         d="M 1114.96,294.803 V 68.0315"
         id="path1948" /><path
         style="fill:none;stroke:#ff0000;stroke-width:0.07559055;stroke-linecap:round;stroke-opacity:1;stroke-dasharray:none"
         d="m 1114.96,68.0315 h 16.44"
         id="path1950" /><path
         d="m 1131.4016,68.031496 a 7.559055,7.559055 0 0 0 7.559,-7.559055"
         style="fill:none;stroke:#ff0000;stroke-width:0.07559055;stroke-linecap:round;stroke-opacity:1;stroke-dasharray:none"
         id="path1952" /><path
         style="fill:none;stroke:#ff0000;stroke-width:0.07559055;stroke-linecap:round;stroke-opacity:1;stroke-dasharray:none"
         d="M 1138.96,60.4724 V -113.386"
         id="path1954" /><path
         d="m 1138.9606,-113.38583 a 7.559055,7.559055 0 0 0 -7.559,-7.55905"
         style="fill:none;stroke:#ff0000;stroke-width:0.07559055;stroke-linecap:round;stroke-opacity:1;stroke-dasharray:none"
         id="path1956" /><path
         style="fill:none;stroke:#ff0000;stroke-width:0.07559055;stroke-linecap:round;stroke-opacity:1;stroke-dasharray:none"
         d="m 1131.4,-120.945 h -16.44"
         id="path1958" /><path
         style="fill:none;stroke:#ff0000;stroke-width:0.07559055;stroke-linecap:round;stroke-opacity:1;stroke-dasharray:none"
         d="M 1114.96,-120.945 V -347.717"
         id="path1960" /><path
         style="fill:none;stroke:#ff0000;stroke-width:0.07559055;stroke-linecap:round;stroke-opacity:1;stroke-dasharray:none"
         d="m 1114.96,-347.717 h 16.44"
         id="path1962" /><path
         d="m 1131.4016,-347.71654 a 7.559055,7.559055 0 0 0 7.559,-7.55905"
         style="fill:none;stroke:#ff0000;stroke-width:0.07559055;stroke-linecap:round;stroke-opacity:1;stroke-dasharray:none"
         id="path1964" /><path
         style="fill:none;stroke:#ff0000;stroke-width:0.07559055;stroke-linecap:round;stroke-opacity:1;stroke-dasharray:none"
         d="M 1138.96,-355.276 V -529.134"
         id="path1966" /><path
         d="m 1138.9606,-529.13386 a 7.559055,7.559055 0 0 0 -7.559,-7.55905"
         style="fill:none;stroke:#ff0000;stroke-width:0.07559055;stroke-linecap:round;stroke-opacity:1;stroke-dasharray:none"
         id="path1968" /><path
         style="fill:none;stroke:#ff0000;stroke-width:0.07559055;stroke-linecap:round;stroke-opacity:1;stroke-dasharray:none"
         d="m 1131.4,-536.693 h -16.44"
         id="path1970" /><path
         style="fill:none;stroke:#ff0000;stroke-width:0.07559055;stroke-linecap:round;stroke-opacity:1;stroke-dasharray:none"
         d="M 1114.96,-536.693 V -763.465"
         id="path1972" /><path
         style="fill:none;stroke:#ff0000;stroke-width:0.07559055;stroke-linecap:round;stroke-opacity:1;stroke-dasharray:none"
         d="m 1114.96,-763.465 h 16.44"
         id="path1974" /><path
         d="m 1131.4016,-763.46457 a 7.559055,7.559055 0 0 0 7.559,-7.55905"
         style="fill:none;stroke:#ff0000;stroke-width:0.07559055;stroke-linecap:round;stroke-opacity:1;stroke-dasharray:none"
         id="path1976" /><path
         style="fill:none;stroke:#ff0000;stroke-width:0.07559055;stroke-linecap:round;stroke-opacity:1;stroke-dasharray:none"
         d="M 1138.96,-771.024 V -944.882"
         id="path1978" /><path
         d="m 1138.9606,-944.88189 a 7.559055,7.559055 0 0 0 -7.559,-7.55906"
         style="fill:none;stroke:#ff0000;stroke-width:0.07559055;stroke-linecap:round;stroke-opacity:1;stroke-dasharray:none"
         id="path1980" /><path
         style="fill:none;stroke:#ff0000;stroke-width:0.07559055;stroke-linecap:round;stroke-opacity:1;stroke-dasharray:none"
         d="m 1131.4,-952.441 h -16.44"
         id="path1982" /><path
         style="fill:none;stroke:#ff0000;stroke-width:0.07559055;stroke-linecap:round;stroke-opacity:1;stroke-dasharray:none"
         d="M 1114.96,-952.441 V -1179.21"
         id="path1984" /><path
         style="fill:none;stroke:#ff0000;stroke-width:0.07559055;stroke-linecap:round;stroke-opacity:1;stroke-dasharray:none"
         d="M 1114.96,-1179.21 H 702.992"
         id="path1986" /><path
         style="fill:none;stroke:#ff0000;stroke-width:0.07559055;stroke-linecap:round;stroke-opacity:1;stroke-dasharray:none"
         d="m 702.992,-1065.83 v -113.38"
         id="path1988" /><path
         style="fill:none;stroke:#ff0000;stroke-width:0.07559055;stroke-linecap:round;stroke-opacity:1;stroke-dasharray:none"
         d="M 411.969,-1065.83 H 702.992"
         id="path1990" /><path
         d="m 125.95276,459.97615 a 37.795276,37.795276 0 0 0 37.79527,37.79527"
         style="fill:none;stroke:#ff0000;stroke-width:0.07559055;stroke-linecap:round;stroke-opacity:1;stroke-dasharray:none"
         id="path1992" /><path
         style="fill:none;stroke:#ff0000;stroke-width:0.07559055;stroke-linecap:round;stroke-opacity:1;stroke-dasharray:none"
         d="M 125.953,308.795 V 459.976"
         id="path1994" /><path
         d="m 163.74803,270.99977 a 37.795276,37.795276 0 0 0 -37.79527,37.79528"
         style="fill:none;stroke:#ff0000;stroke-width:0.07559055;stroke-linecap:round;stroke-opacity:1;stroke-dasharray:none"
         id="path1996" /><path
         style="fill:none;stroke:#ff0000;stroke-width:0.07559055;stroke-linecap:round;stroke-opacity:1;stroke-dasharray:none"
         d="M 314.929,271 H 163.748"
         id="path1998" /><path
         d="M 352.72441,308.79505 A 37.795276,37.795276 0 0 0 314.92913,270.99977"
         style="fill:none;stroke:#ff0000;stroke-width:0.07559055;stroke-linecap:round;stroke-opacity:1;stroke-dasharray:none"
         id="path2000" /><path
         style="fill:none;stroke:#ff0000;stroke-width:0.07559055;stroke-linecap:round;stroke-opacity:1;stroke-dasharray:none"
         d="M 352.724,459.976 V 308.795"
         id="path2002" /><path
         d="m 314.92913,497.77142 a 37.795276,37.795276 0 0 0 37.79528,-37.79527"
         style="fill:none;stroke:#ff0000;stroke-width:0.07559055;stroke-linecap:round;stroke-opacity:1;stroke-dasharray:none"
         id="path2004" /><path
         style="fill:none;stroke:#ff0000;stroke-width:0.07559055;stroke-linecap:round;stroke-opacity:1;stroke-dasharray:none"
         d="M 163.748,497.771 H 314.929"
         id="path2006" /><path
         d="m 673.63851,-580.75518 a 26.456693,26.456693 0 0 0 26.45669,26.45669"
         style="fill:none;stroke:#ff0000;stroke-width:0.07559055;stroke-linecap:round;stroke-opacity:1;stroke-dasharray:none"
         id="path2008" /><path
         style="fill:none;stroke:#ff0000;stroke-width:0.07559055;stroke-linecap:round;stroke-opacity:1;stroke-dasharray:none"
         d="m 673.639,-792.409 v 211.654"
         id="path2010" /><path
         d="m 700.0952,-818.86542 a 26.456693,26.456693 0 0 0 -26.45669,26.45669"
         style="fill:none;stroke:#ff0000;stroke-width:0.07559055;stroke-linecap:round;stroke-opacity:1;stroke-dasharray:none"
         id="path2012" /><path
         style="fill:none;stroke:#ff0000;stroke-width:0.07559055;stroke-linecap:round;stroke-opacity:1;stroke-dasharray:none"
         d="M 911.749,-818.865 H 700.095"
         id="path2014" /><path
         d="m 938.20544,-792.40873 a 26.456693,26.456693 0 0 0 -26.45669,-26.45669"
         style="fill:none;stroke:#ff0000;stroke-width:0.07559055;stroke-linecap:round;stroke-opacity:1;stroke-dasharray:none"
         id="path2016" /><path
         style="fill:none;stroke:#ff0000;stroke-width:0.07559055;stroke-linecap:round;stroke-opacity:1;stroke-dasharray:none"
         d="M 938.205,-580.755 V -792.409"
         id="path2018" /><path
         d="m 911.74875,-554.29849 a 26.456693,26.456693 0 0 0 26.45669,-26.45669"
         style="fill:none;stroke:#ff0000;stroke-width:0.07559055;stroke-linecap:round;stroke-opacity:1;stroke-dasharray:none"
         id="path2020" /><path
         style="fill:none;stroke:#ff0000;stroke-width:0.07559055;stroke-linecap:round;stroke-opacity:1;stroke-dasharray:none"
         d="M 700.095,-554.298 H 911.749"
         id="path2022" /><path
         d="m 181.57771,-502.21156 a 26.456693,26.456693 0 0 0 26.45669,26.45669"
         style="fill:none;stroke:#ff0000;stroke-width:0.07559055;stroke-linecap:round;stroke-opacity:1;stroke-dasharray:none"
         id="path2024" /><path
         style="fill:none;stroke:#ff0000;stroke-width:0.07559055;stroke-linecap:round;stroke-opacity:1;stroke-dasharray:none"
         d="m 181.578,-713.865 v 211.653"
         id="path2026" /><path
         d="m 208.0344,-740.3218 a 26.456693,26.456693 0 0 0 -26.45669,26.4567"
         style="fill:none;stroke:#ff0000;stroke-width:0.07559055;stroke-linecap:round;stroke-opacity:1;stroke-dasharray:none"
         id="path2028" /><path
         style="fill:none;stroke:#ff0000;stroke-width:0.07559055;stroke-linecap:round;stroke-opacity:1;stroke-dasharray:none"
         d="M 419.688,-740.322 H 208.034"
         id="path2030" /><path
         d="m 446.14464,-713.8651 a 26.456693,26.456693 0 0 0 -26.45669,-26.4567"
         style="fill:none;stroke:#ff0000;stroke-width:0.07559055;stroke-linecap:round;stroke-opacity:1;stroke-dasharray:none"
         id="path2032" /><path
         style="fill:none;stroke:#ff0000;stroke-width:0.07559055;stroke-linecap:round;stroke-opacity:1;stroke-dasharray:none"
         d="M 446.145,-502.212 V -713.865"
         id="path2034" /><path
         d="m 419.68795,-475.75487 a 26.456693,26.456693 0 0 0 26.45669,-26.45669"
         style="fill:none;stroke:#ff0000;stroke-width:0.07559055;stroke-linecap:round;stroke-opacity:1;stroke-dasharray:none"
         id="path2036" /><path
         style="fill:none;stroke:#ff0000;stroke-width:0.07559055;stroke-linecap:round;stroke-opacity:1;stroke-dasharray:none"
         d="M 208.034,-475.755 H 419.688"
         id="path2038" /><path
         style="fill:none;stroke:#ff0000;stroke-width:0.07559055;stroke-linecap:round;stroke-opacity:1;stroke-dasharray:none"
         d="m 1007.81,483.78 h 24"
         id="path2040" /><path
         style="fill:none;stroke:#ff0000;stroke-width:0.07559055;stroke-linecap:round;stroke-opacity:1;stroke-dasharray:none"
         d="M 1007.81,294.803 V 483.78"
         id="path2042" /><path
         style="fill:none;stroke:#ff0000;stroke-width:0.07559055;stroke-linecap:round;stroke-opacity:1;stroke-dasharray:none"
         d="m 1031.81,294.803 h -24"
         id="path2044" /><path
         style="fill:none;stroke:#ff0000;stroke-width:0.07559055;stroke-linecap:round;stroke-opacity:1;stroke-dasharray:none"
         d="M 1031.81,483.78 V 294.803"
         id="path2046" /><path
         d="m 62.362205,1065.8268 a 5.6692915,5.6692915 0 0 0 -11.338583,0 5.6692915,5.6692915 0 0 0 11.338583,0 z"
         style="fill:none;stroke:#ff0000;stroke-width:0.07559055;stroke-linecap:round;stroke-opacity:1;stroke-dasharray:none"
         id="path2048" /><path
         style="fill:none;stroke:#ff0000;stroke-width:0.07559055;stroke-linecap:round;stroke-opacity:1;stroke-dasharray:none"
         d="M 578.268,-236.042 V 141.911"
         id="path2050" /><path
         d="m 616.06299,-273.83736 a 37.795276,37.795276 0 0 0 -37.79527,37.79527"
         style="fill:none;stroke:#ff0000;stroke-width:0.07559055;stroke-linecap:round;stroke-opacity:1;stroke-dasharray:none"
         id="path2052" /><path
         style="fill:none;stroke:#ff0000;stroke-width:0.07559055;stroke-linecap:round;stroke-opacity:1;stroke-dasharray:none"
         d="M 994.016,-273.837 H 616.063"
         id="path2054" /><path
         d="m 1031.811,-236.04209 a 37.795276,37.795276 0 0 0 -37.79525,-37.79527"
         style="fill:none;stroke:#ff0000;stroke-width:0.07559055;stroke-linecap:round;stroke-opacity:1;stroke-dasharray:none"
         id="path2056" /><path
         style="fill:none;stroke:#ff0000;stroke-width:0.07559055;stroke-linecap:round;stroke-opacity:1;stroke-dasharray:none"
         d="M 1031.81,141.911 V -236.042"
         id="path2058" /><path
         d="M 994.01575,179.70594 A 37.795276,37.795276 0 0 0 1031.811,141.91067"
         style="fill:none;stroke:#ff0000;stroke-width:0.07559055;stroke-linecap:round;stroke-opacity:1;stroke-dasharray:none"
         id="path2060" /><path
         style="fill:none;stroke:#ff0000;stroke-width:0.07559055;stroke-linecap:round;stroke-opacity:1;stroke-dasharray:none"
         d="M 616.063,179.706 H 994.016"
         id="path2062" /><path
         d="m 578.26772,141.91067 a 37.795276,37.795276 0 0 0 37.79527,37.79527"
         style="fill:none;stroke:#ff0000;stroke-width:0.07559055;stroke-linecap:round;stroke-opacity:1;stroke-dasharray:none"
         id="path2064" /><path
         style="fill:none;stroke:#ff0000;stroke-width:0.07559055;stroke-linecap:round;stroke-opacity:1;stroke-dasharray:none"
         d="M 18.8976,-234.911 V 143.041"
         id="path2066" /><path
         d="m 56.692913,-272.70653 a 37.795276,37.795276 0 0 0 -37.795275,37.79527"
         style="fill:none;stroke:#ff0000;stroke-width:0.07559055;stroke-linecap:round;stroke-opacity:1;stroke-dasharray:none"
         id="path2068" /><path
         style="fill:none;stroke:#ff0000;stroke-width:0.07559055;stroke-linecap:round;stroke-opacity:1;stroke-dasharray:none"
         d="M 434.646,-272.707 H 56.6929"
         id="path2070" /><path
         d="m 472.44094,-234.91126 a 37.795276,37.795276 0 0 0 -37.79527,-37.79527"
         style="fill:none;stroke:#ff0000;stroke-width:0.07559055;stroke-linecap:round;stroke-opacity:1;stroke-dasharray:none"
         id="path2072" /><path
         style="fill:none;stroke:#ff0000;stroke-width:0.07559055;stroke-linecap:round;stroke-opacity:1;stroke-dasharray:none"
         d="M 472.441,143.041 V -234.911"
         id="path2074" /><path
         d="M 434.64567,180.83677 A 37.795276,37.795276 0 0 0 472.44094,143.0415"
         style="fill:none;stroke:#ff0000;stroke-width:0.07559055;stroke-linecap:round;stroke-opacity:1;stroke-dasharray:none"
         id="path2076" /><path
         style="fill:none;stroke:#ff0000;stroke-width:0.07559055;stroke-linecap:round;stroke-opacity:1;stroke-dasharray:none"
         d="M 56.6929,180.837 H 434.646"
         id="path2078" /><path
         d="m 18.897638,143.0415 a 37.795276,37.795276 0 0 0 37.795275,37.79527"
         style="fill:none;stroke:#ff0000;stroke-width:0.07559055;stroke-linecap:round;stroke-opacity:1;stroke-dasharray:none"
         id="path2080" /><path
         d="M 881.85827,308.79505 A 37.795276,37.795276 0 0 0 844.06299,270.99977"
         style="fill:none;stroke:#ff0000;stroke-width:0.07559055;stroke-linecap:round;stroke-opacity:1;stroke-dasharray:none"
         id="path2082" /><path
         style="fill:none;stroke:#ff0000;stroke-width:0.07559055;stroke-linecap:round;stroke-opacity:1;stroke-dasharray:none"
         d="M 881.858,459.976 V 308.795"
         id="path2084" /><path
         d="m 844.06299,497.77142 a 37.795276,37.795276 0 0 0 37.79528,-37.79527"
         style="fill:none;stroke:#ff0000;stroke-width:0.07559055;stroke-linecap:round;stroke-opacity:1;stroke-dasharray:none"
         id="path2086" /><path
         style="fill:none;stroke:#ff0000;stroke-width:0.07559055;stroke-linecap:round;stroke-opacity:1;stroke-dasharray:none"
         d="M 692.882,497.771 H 844.063"
         id="path2088" /><path
         d="m 655.08661,459.97615 a 37.795276,37.795276 0 0 0 37.79528,37.79527"
         style="fill:none;stroke:#ff0000;stroke-width:0.07559055;stroke-linecap:round;stroke-opacity:1;stroke-dasharray:none"
         id="path2090" /><path
         style="fill:none;stroke:#ff0000;stroke-width:0.07559055;stroke-linecap:round;stroke-opacity:1;stroke-dasharray:none"
         d="M 655.087,308.795 V 459.976"
         id="path2092" /><path
         d="m 692.88189,270.99977 a 37.795276,37.795276 0 0 0 -37.79528,37.79528"
         style="fill:none;stroke:#ff0000;stroke-width:0.07559055;stroke-linecap:round;stroke-opacity:1;stroke-dasharray:none"
         id="path2094" /><path
         style="fill:none;stroke:#ff0000;stroke-width:0.07559055;stroke-linecap:round;stroke-opacity:1;stroke-dasharray:none"
         d="M 844.063,271 H 692.882"
         id="path2096" /><path
         d="m 684.18898,-423.30709 a 3.874016,3.874016 0 0 0 -7.74803,0 3.874016,3.874016 0 0 0 7.74803,0 z"
         style="fill:none;stroke:#ff0000;stroke-width:0.07559055;stroke-linecap:round;stroke-opacity:1;stroke-dasharray:none"
         id="path2098" /><path
         d="m 528.72699,-251.62828 a 3.874016,3.874016 0 0 0 -7.74803,0 3.874016,3.874016 0 0 0 7.74803,0 z"
         style="fill:none;stroke:#ff0000;stroke-width:0.07559055;stroke-linecap:round;stroke-opacity:1;stroke-dasharray:none"
         id="path2100" /><path
         d="m 528.72699,-232.73065 a 3.874016,3.874016 0 0 0 -7.74803,0 3.874016,3.874016 0 0 0 7.74803,0 z"
         style="fill:none;stroke:#ff0000;stroke-width:0.07559055;stroke-linecap:round;stroke-opacity:1;stroke-dasharray:none"
         id="path2102" /><path
         d="m 528.72699,69.631559 a 3.874016,3.874016 0 0 0 -7.74803,0 3.874016,3.874016 0 0 0 7.74803,0 z"
         style="fill:none;stroke:#ff0000;stroke-width:0.07559055;stroke-linecap:round;stroke-opacity:1;stroke-dasharray:none"
         id="path2104" /><path
         d="m 528.72699,88.529196 a 3.874016,3.874016 0 0 0 -7.74803,0 3.874016,3.874016 0 0 0 7.74803,0 z"
         style="fill:none;stroke:#ff0000;stroke-width:0.07559055;stroke-linecap:round;stroke-opacity:1;stroke-dasharray:none"
         id="path2106" /><path
         style="fill:none;stroke:#ff0000;stroke-width:0.07559055;stroke-linecap:round;stroke-opacity:1;stroke-dasharray:none"
         d="M 1007.81,710.551 V 899.528"
         id="path2108" /><path
         style="fill:none;stroke:#ff0000;stroke-width:0.07559055;stroke-linecap:round;stroke-opacity:1;stroke-dasharray:none"
         d="m 1031.81,710.551 h -24"
         id="path2110" /><path
         style="fill:none;stroke:#ff0000;stroke-width:0.07559055;stroke-linecap:round;stroke-opacity:1;stroke-dasharray:none"
         d="M 1031.81,899.528 V 710.551"
         id="path2112" /><path
         style="fill:none;stroke:#ff0000;stroke-width:0.07559055;stroke-linecap:round;stroke-opacity:1;stroke-dasharray:none"
         d="m 1007.81,899.528 h 24"
         id="path2114" /></g></g></svg>
