<?xml version="1.0" encoding="UTF-8" standalone="no"?>
<!-- Created with Inkscape (http://www.inkscape.org/) -->

<svg
   width="210mm"
   height="297mm"
   viewBox="0 0 210 297"
   version="1.1"
   id="svg5"
   xml:space="preserve"
   inkscape:version="1.2.2 (732a01da63, 2022-12-09)"
   sodipodi:docname="slingshot testbed v4 inkscape.svg"
   xmlns:inkscape="http://www.inkscape.org/namespaces/inkscape"
   xmlns:sodipodi="http://sodipodi.sourceforge.net/DTD/sodipodi-0.dtd"
   xmlns="http://www.w3.org/2000/svg"
   xmlns:svg="http://www.w3.org/2000/svg"><sodipodi:namedview
     id="namedview7"
     pagecolor="#ffffff"
     bordercolor="#000000"
     borderopacity="0.25"
     inkscape:showpageshadow="2"
     inkscape:pageopacity="0.0"
     inkscape:pagecheckerboard="0"
     inkscape:deskcolor="#d1d1d1"
     inkscape:document-units="mm"
     showgrid="false"
     inkscape:zoom="1.829812"
     inkscape:cx="396.76207"
     inkscape:cy="298.39131"
     inkscape:window-width="2560"
     inkscape:window-height="1346"
     inkscape:window-x="-11"
     inkscape:window-y="-11"
     inkscape:window-maximized="1"
     inkscape:current-layer="g1170" /><defs
     id="defs2"><marker
       id="DistanceX"
       orient="auto"
       refX="0.0"
       refY="0.0"
       style="overflow:visible"><path
         d="M 3,-3 L -3,3 M 0,-5 L  0,5"
         style="stroke:#000000; stroke-width:0.5"
         id="path1101" /></marker><pattern
       id="Hatch"
       patternUnits="userSpaceOnUse"
       width="8"
       height="8"
       x="0"
       y="0"><path
         d="M8 4 l-4,4"
         stroke="#000000"
         stroke-width="0.25"
         linecap="square"
         id="path1104" /><path
         d="M6 2 l-4,4"
         stroke="#000000"
         stroke-width="0.25"
         linecap="square"
         id="path1106" /><path
         d="M4 0 l-4,4"
         stroke="#000000"
         stroke-width="0.25"
         linecap="square"
         id="path1108" /></pattern><symbol
       id="*Model_Space" /><symbol
       id="*Paper_Space" /><symbol
       id="*Paper_Space0" /></defs><g
     inkscape:label="Layer 1"
     inkscape:groupmode="layer"
     id="layer1"><g
       inkscape:label="0"
       id="g1170"
       transform="matrix(0.26458333,0,0,0.26458333,4.9235641,-172.82757)"><path
         d="m 267.91172,944.42793 a 3.874016,3.874016 0 0 0 -7.74803,0 3.874016,3.874016 0 0 0 7.74803,0 z"
         style="fill:none;stroke:#ff0000;stroke-width:0.07559055;stroke-linecap:round;stroke-opacity:1;stroke-dasharray:none"
         id="path1116" /><path
         d="m 90.373077,764.17714 a 3.874016,3.874016 0 0 0 -7.748031,0 3.874016,3.874016 0 0 0 7.748031,0 z"
         style="fill:none;stroke:#ff0000;stroke-width:0.07559055;stroke-linecap:round;stroke-opacity:1;stroke-dasharray:none"
         id="path1118" /><path
         d="m 129.00023,787.94598 a 3.874016,3.874016 0 0 0 -7.74803,0 3.874016,3.874016 0 0 0 7.74803,0 z"
         style="fill:none;stroke:#ff0000;stroke-width:0.07559055;stroke-linecap:round;stroke-opacity:1;stroke-dasharray:none"
         id="path1120" /><path
         d="m 95.327705,842.66779 a 3.874016,3.874016 0 0 0 -7.748032,0 3.874016,3.874016 0 0 0 7.748032,0 z"
         style="fill:none;stroke:#ff0000;stroke-width:0.07559055;stroke-linecap:round;stroke-opacity:1;stroke-dasharray:none"
         id="path1122" /><path
         d="m 56.700547,818.89895 a 3.874016,3.874016 0 0 0 -7.748032,0 3.874016,3.874016 0 0 0 7.748032,0 z"
         style="fill:none;stroke:#ff0000;stroke-width:0.07559055;stroke-linecap:round;stroke-opacity:1;stroke-dasharray:none"
         id="path1124" /><path
         d="m 258.99562,872.37513 a 3.874016,3.874016 0 0 0 -7.74803,0 3.874016,3.874016 0 0 0 7.74803,0 z"
         style="fill:none;stroke:#ff0000;stroke-width:0.07559055;stroke-linecap:round;stroke-opacity:1;stroke-dasharray:none"
         id="path1126" /><path
         d="m 297.62278,896.14398 a 3.874016,3.874016 0 0 0 -7.74803,0 3.874016,3.874016 0 0 0 7.74803,0 z"
         style="fill:none;stroke:#ff0000;stroke-width:0.07559055;stroke-linecap:round;stroke-opacity:1;stroke-dasharray:none"
         id="path1128" /><path
         d="m 229.28456,920.65908 a 3.874016,3.874016 0 0 0 -7.74803,0 3.874016,3.874016 0 0 0 7.74803,0 z"
         style="fill:none;stroke:#ff0000;stroke-width:0.07559055;stroke-linecap:round;stroke-opacity:1;stroke-dasharray:none"
         id="path1130" /><path
         d="m 243.84467,1094.8346 a 8.787402,8.787402 0 0 0 -17.5748,0 8.787402,8.787402 0 0 0 17.5748,0 z"
         style="fill:none;stroke:#ff0000;stroke-width:0.07559055;stroke-linecap:round;stroke-opacity:1;stroke-dasharray:none"
         id="path1132" /><path
         d="m 422.24162,804.9187 a 8.787402,8.787402 0 0 0 -17.5748,0 8.787402,8.787402 0 0 0 17.5748,0 z"
         style="fill:none;stroke:#ff0000;stroke-width:0.07559055;stroke-linecap:round;stroke-opacity:1;stroke-dasharray:none"
         id="path1134" /><path
         style="fill:none;stroke:#ff0000;stroke-width:0.07559055;stroke-linecap:round;stroke-opacity:1;stroke-dasharray:none"
         d="M 374.297,815.727 228.554,1052.58"
         id="path1136" /><path
         style="fill:none;stroke:#ff0000;stroke-width:0.07559055;stroke-linecap:round;stroke-opacity:1;stroke-dasharray:none"
         d="M 438.676,855.341 374.297,815.727"
         id="path1138" /><path
         style="fill:none;stroke:#ff0000;stroke-width:0.07559055;stroke-linecap:round;stroke-opacity:1;stroke-dasharray:none"
         d="M 292.933,1092.19 438.676,855.341"
         id="path1140" /><path
         style="fill:none;stroke:#ff0000;stroke-width:0.07559055;stroke-linecap:round;stroke-opacity:1;stroke-dasharray:none"
         d="m 228.554,1052.58 64.379,39.61"
         id="path1142" /><path
         d="m 386.64442,1094.8346 a 8.787405,8.787405 0 0 0 -17.57481,0 8.787405,8.787405 0 0 0 17.57481,0 z"
         style="fill:none;stroke:#ff0000;stroke-width:0.07559055;stroke-linecap:round;stroke-opacity:1;stroke-dasharray:none"
         id="path1144" /><path
         d="m 415.74803,1122.5197 a 37.795276,37.795276 0 0 0 37.79528,-37.7953"
         style="fill:none;stroke:#ff0000;stroke-width:0.07559055;stroke-linecap:round;stroke-opacity:1;stroke-dasharray:none"
         id="path1146" /><path
         style="fill:none;stroke:#ff0000;stroke-width:0.07559055;stroke-linecap:round;stroke-opacity:1;stroke-dasharray:none"
         d="M 453.543,1084.72 V 706.772"
         id="path1148" /><path
         d="M 453.54331,706.77165 A 37.795276,37.795276 0 0 0 415.74803,668.97638"
         style="fill:none;stroke:#ff0000;stroke-width:0.07559055;stroke-linecap:round;stroke-opacity:1;stroke-dasharray:none"
         id="path1150" /><path
         style="fill:none;stroke:#ff0000;stroke-width:0.07559055;stroke-linecap:round;stroke-opacity:1;stroke-dasharray:none"
         d="M 415.748,668.976 H 37.7953"
         id="path1152" /><path
         d="M 37.795276,668.97638 A 37.795276,37.795276 0 0 0 0,706.77165"
         style="fill:none;stroke:#ff0000;stroke-width:0.07559055;stroke-linecap:round;stroke-opacity:1;stroke-dasharray:none"
         id="path1154" /><path
         style="fill:none;stroke:#ff0000;stroke-width:0.07559055;stroke-linecap:round;stroke-opacity:1;stroke-dasharray:none"
         d="M 0,706.772 V 1084.72"
         id="path1156" /><path
         d="m 0,1084.7244 a 37.795276,37.795276 0 0 0 37.795276,37.7953"
         style="fill:none;stroke:#ff0000;stroke-width:0.07559055;stroke-linecap:round;stroke-opacity:1;stroke-dasharray:none"
         id="path1158" /><path
         style="fill:none;stroke:#ff0000;stroke-width:0.07559055;stroke-linecap:round;stroke-opacity:1;stroke-dasharray:none"
         d="M 37.7953,1122.52 H 415.748"
         id="path1160" /></g></g></svg>
