<?xml version="1.0" encoding="UTF-8" standalone="no"?>
<!-- Created with Inkscape (http://www.inkscape.org/) -->

<svg
   width="210mm"
   height="297mm"
   viewBox="0 0 210 297"
   version="1.1"
   id="svg5"
   xml:space="preserve"
   inkscape:version="1.2.2 (732a01da63, 2022-12-09)"
   sodipodi:docname="testbed fit tester.svg"
   xmlns:inkscape="http://www.inkscape.org/namespaces/inkscape"
   xmlns:sodipodi="http://sodipodi.sourceforge.net/DTD/sodipodi-0.dtd"
   xmlns="http://www.w3.org/2000/svg"
   xmlns:svg="http://www.w3.org/2000/svg"><sodipodi:namedview
     id="namedview7"
     pagecolor="#ffffff"
     bordercolor="#000000"
     borderopacity="0.25"
     inkscape:showpageshadow="2"
     inkscape:pageopacity="0.0"
     inkscape:pagecheckerboard="0"
     inkscape:deskcolor="#d1d1d1"
     inkscape:document-units="mm"
     showgrid="false"
     inkscape:zoom="1.829812"
     inkscape:cx="396.76207"
     inkscape:cy="255.21747"
     inkscape:window-width="2560"
     inkscape:window-height="1346"
     inkscape:window-x="-11"
     inkscape:window-y="-11"
     inkscape:window-maximized="1"
     inkscape:current-layer="g1180" /><defs
     id="defs2"><marker
       id="DistanceX"
       orient="auto"
       refX="0.0"
       refY="0.0"
       style="overflow:visible"><path
         d="M 3,-3 L -3,3 M 0,-5 L  0,5"
         style="stroke:#000000; stroke-width:0.5"
         id="path1101" /></marker><pattern
       id="Hatch"
       patternUnits="userSpaceOnUse"
       width="8"
       height="8"
       x="0"
       y="0"><path
         d="M8 4 l-4,4"
         stroke="#000000"
         stroke-width="0.25"
         linecap="square"
         id="path1104" /><path
         d="M6 2 l-4,4"
         stroke="#000000"
         stroke-width="0.25"
         linecap="square"
         id="path1106" /><path
         d="M4 0 l-4,4"
         stroke="#000000"
         stroke-width="0.25"
         linecap="square"
         id="path1108" /></pattern><symbol
       id="*Model_Space" /><symbol
       id="*Paper_Space" /><symbol
       id="*Paper_Space0" /></defs><g
     inkscape:label="Layer 1"
     inkscape:groupmode="layer"
     id="layer1"><g
       inkscape:label="0"
       id="g1180"
       transform="matrix(0.26458333,0,0,0.26458333,4.7568533,-261.49508)"><path
         d="m 49.752857,1051.0421 a 8.6929135,8.6929135 0 0 0 -17.385827,0 8.6929135,8.6929135 0 0 0 17.385827,0 z"
         style="fill:none;stroke:#ff0000;stroke-width:0.07559055;stroke-linecap:round;stroke-opacity:1;stroke-dasharray:none"
         id="path1116" /><path
         d="m 97.674648,1051.0421 a 8.503937,8.503937 0 0 0 -17.007874,0 8.503937,8.503937 0 0 0 17.007874,0 z"
         style="fill:none;stroke:#ff0000;stroke-width:0.07559055;stroke-linecap:round;stroke-opacity:1;stroke-dasharray:none"
         id="path1118" /><path
         d="m 49.066835,1024.5024 a 8.976378,8.976378 0 0 0 -17.952756,0 8.976378,8.976378 0 0 0 17.952756,0 z"
         style="fill:none;stroke:#ff0000;stroke-width:0.07559055;stroke-linecap:round;stroke-opacity:1;stroke-dasharray:none"
         id="path1120" /><path
         d="m 24.020372,1075.2793 a 8.409449,8.409449 0 0 0 -16.818898,0 8.409449,8.409449 0 0 0 16.818898,0 z"
         style="fill:none;stroke:#ff0000;stroke-width:0.07559055;stroke-linecap:round;stroke-opacity:1;stroke-dasharray:none"
         id="path1122" /><path
         d="m 73.640857,1024.5024 a 9.070866,9.070866 0 0 0 -18.141732,0 9.070866,9.070866 0 0 0 18.141732,0 z"
         style="fill:none;stroke:#ff0000;stroke-width:0.07559055;stroke-linecap:round;stroke-opacity:1;stroke-dasharray:none"
         id="path1124" /><path
         d="m 24.398325,1051.0421 a 8.787402,8.787402 0 0 0 -17.574803,0 8.787402,8.787402 0 0 0 17.574803,0 z"
         style="fill:none;stroke:#ff0000;stroke-width:0.07559055;stroke-linecap:round;stroke-opacity:1;stroke-dasharray:none"
         id="path1126" /><path
         d="m 73.168416,1051.0421 a 8.598425,8.598425 0 0 0 -17.19685,0 8.598425,8.598425 0 0 0 17.19685,0 z"
         style="fill:none;stroke:#ff0000;stroke-width:0.07559055;stroke-linecap:round;stroke-opacity:1;stroke-dasharray:none"
         id="path1128" /><path
         d="m 98.336065,1024.5024 a 9.165354,9.165354 0 0 0 -18.330708,0 9.165354,9.165354 0 0 0 18.330708,0 z"
         style="fill:none;stroke:#ff0000;stroke-width:0.07559055;stroke-linecap:round;stroke-opacity:1;stroke-dasharray:none"
         id="path1130" /><path
         style="fill:none;stroke:#ff0000;stroke-width:0.07559055;stroke-linecap:round;stroke-opacity:1;stroke-dasharray:none"
         d="m 103.834,1093.21 h 3.515"
         id="path1132" /><path
         style="fill:none;stroke:#ff0000;stroke-width:0.07559055;stroke-linecap:round;stroke-opacity:1;stroke-dasharray:none"
         d="m 103.834,1089.7 v 3.51"
         id="path1134" /><path
         style="fill:none;stroke:#ff0000;stroke-width:0.07559055;stroke-linecap:round;stroke-opacity:1;stroke-dasharray:none"
         d="m 107.349,1089.7 h -3.515"
         id="path1136" /><path
         style="fill:none;stroke:#ff0000;stroke-width:0.07559055;stroke-linecap:round;stroke-opacity:1;stroke-dasharray:none"
         d="m 107.349,1093.21 v -3.51"
         id="path1138" /><path
         d="m 97.958113,1103.2732 a 8.787402,8.787402 0 0 0 -17.574804,0 8.787402,8.787402 0 0 0 17.574804,0 z"
         style="fill:none;stroke:#ff0000;stroke-width:0.07559055;stroke-linecap:round;stroke-opacity:1;stroke-dasharray:none"
         id="path1140" /><path
         d="m 74.774716,1103.2732 a 10.204724,10.204724 0 0 0 -20.409449,0 10.204724,10.204724 0 0 0 20.409449,0 z"
         style="fill:none;stroke:#ff0000;stroke-width:0.07559055;stroke-linecap:round;stroke-opacity:1;stroke-dasharray:none"
         id="path1142" /><path
         d="m 24.332627,1103.2732 a 9.448819,9.448819 0 0 0 -18.897638,0 9.448819,9.448819 0 0 0 18.897638,0 z"
         style="fill:none;stroke:#ff0000;stroke-width:0.07559055;stroke-linecap:round;stroke-opacity:1;stroke-dasharray:none"
         id="path1144" /><path
         d="m 73.829834,1075.2793 a 9.259843,9.259843 0 0 0 -18.519685,0 9.259843,9.259843 0 0 0 18.519685,0 z"
         style="fill:none;stroke:#ff0000;stroke-width:0.07559055;stroke-linecap:round;stroke-opacity:1;stroke-dasharray:none"
         id="path1146" /><path
         d="m 48.405418,1075.2793 a 8.314961,8.314961 0 0 0 -16.629921,0 8.314961,8.314961 0 0 0 16.629921,0 z"
         style="fill:none;stroke:#ff0000;stroke-width:0.07559055;stroke-linecap:round;stroke-opacity:1;stroke-dasharray:none"
         id="path1148" /><path
         d="m 98.525042,1075.2793 a 9.354331,9.354331 0 0 0 -18.708662,0 9.354331,9.354331 0 0 0 18.708662,0 z"
         style="fill:none;stroke:#ff0000;stroke-width:0.07559055;stroke-linecap:round;stroke-opacity:1;stroke-dasharray:none"
         id="path1150" /><path
         d="m 50.200693,1103.2732 a 10.110236,10.110236 0 0 0 -20.220472,0 10.110236,10.110236 0 0 0 20.220472,0 z"
         style="fill:none;stroke:#ff0000;stroke-width:0.07559055;stroke-linecap:round;stroke-opacity:1;stroke-dasharray:none"
         id="path1152" /><path
         d="m 24.492813,1024.5024 a 8.88189,8.88189 0 0 0 -17.76378,0 8.88189,8.88189 0 0 0 17.76378,0 z"
         style="fill:none;stroke:#ff0000;stroke-width:0.07559055;stroke-linecap:round;stroke-opacity:1;stroke-dasharray:none"
         id="path1154" /><path
         d="m 0,1111.1811 a 11.338583,11.338583 0 0 0 11.338583,11.3386"
         style="fill:none;stroke:#ff0000;stroke-width:0.07559055;stroke-linecap:round;stroke-opacity:1;stroke-dasharray:none"
         id="path1156" /><path
         style="fill:none;stroke:#ff0000;stroke-width:0.07559055;stroke-linecap:round;stroke-opacity:1;stroke-dasharray:none"
         d="M 11.3386,1122.52 H 102.047"
         id="path1158" /><path
         d="m 102.04724,1122.5197 a 11.338583,11.338583 0 0 0 11.33859,-11.3386"
         style="fill:none;stroke:#ff0000;stroke-width:0.07559055;stroke-linecap:round;stroke-opacity:1;stroke-dasharray:none"
         id="path1160" /><path
         style="fill:none;stroke:#ff0000;stroke-width:0.07559055;stroke-linecap:round;stroke-opacity:1;stroke-dasharray:none"
         d="m 113.386,1111.18 v -90.71"
         id="path1162" /><path
         d="m 113.38583,1020.4724 a 11.338583,11.338583 0 0 0 -11.33859,-11.3385"
         style="fill:none;stroke:#ff0000;stroke-width:0.07559055;stroke-linecap:round;stroke-opacity:1;stroke-dasharray:none"
         id="path1164" /><path
         style="fill:none;stroke:#ff0000;stroke-width:0.07559055;stroke-linecap:round;stroke-opacity:1;stroke-dasharray:none"
         d="M 102.047,1009.13 H 11.3386"
         id="path1166" /><path
         d="M 11.338583,1009.1339 A 11.338583,11.338583 0 0 0 0,1020.4724"
         style="fill:none;stroke:#ff0000;stroke-width:0.07559055;stroke-linecap:round;stroke-opacity:1;stroke-dasharray:none"
         id="path1168" /><path
         style="fill:none;stroke:#ff0000;stroke-width:0.07559055;stroke-linecap:round;stroke-opacity:1;stroke-dasharray:none"
         d="m 0,1020.47 v 90.71"
         id="path1170" /></g></g></svg>
