<?xml version="1.0" encoding="UTF-8" standalone="no"?>
<!-- Created with Inkscape (http://www.inkscape.org/) -->

<svg
   width="210mm"
   height="297mm"
   viewBox="0 0 210 297"
   version="1.1"
   id="svg5"
   xml:space="preserve"
   inkscape:version="1.2.2 (732a01da63, 2022-12-09)"
   sodipodi:docname="IR mount testbed.svg"
   xmlns:inkscape="http://www.inkscape.org/namespaces/inkscape"
   xmlns:sodipodi="http://sodipodi.sourceforge.net/DTD/sodipodi-0.dtd"
   xmlns="http://www.w3.org/2000/svg"
   xmlns:svg="http://www.w3.org/2000/svg"><sodipodi:namedview
     id="namedview7"
     pagecolor="#ffffff"
     bordercolor="#000000"
     borderopacity="0.25"
     inkscape:showpageshadow="2"
     inkscape:pageopacity="0.0"
     inkscape:pagecheckerboard="0"
     inkscape:deskcolor="#d1d1d1"
     inkscape:document-units="mm"
     showgrid="false"
     inkscape:zoom="2.587745"
     inkscape:cx="398.22317"
     inkscape:cy="96.995648"
     inkscape:window-width="2560"
     inkscape:window-height="1377"
     inkscape:window-x="2552"
     inkscape:window-y="-8"
     inkscape:window-maximized="1"
     inkscape:current-layer="g1148" /><defs
     id="defs2"><marker
       id="DistanceX"
       orient="auto"
       refX="0.0"
       refY="0.0"
       style="overflow:visible"><path
         d="M 3,-3 L -3,3 M 0,-5 L  0,5"
         style="stroke:#000000; stroke-width:0.5"
         id="path1101" /></marker><pattern
       id="Hatch"
       patternUnits="userSpaceOnUse"
       width="8"
       height="8"
       x="0"
       y="0"><path
         d="M8 4 l-4,4"
         stroke="#000000"
         stroke-width="0.25"
         linecap="square"
         id="path1104" /><path
         d="M6 2 l-4,4"
         stroke="#000000"
         stroke-width="0.25"
         linecap="square"
         id="path1106" /><path
         d="M4 0 l-4,4"
         stroke="#000000"
         stroke-width="0.25"
         linecap="square"
         id="path1108" /></pattern><symbol
       id="*Model_Space" /><symbol
       id="*Paper_Space" /><symbol
       id="*Paper_Space0" /></defs><g
     inkscape:label="Layer 1"
     inkscape:groupmode="layer"
     id="layer1"><g
       inkscape:label="0"
       id="g1148"
       transform="matrix(0.26458333,0,0,0.26458333,8.2271544,-261.26978)"><path
         d="m 51.11811,1070.9858 a 3.874016,3.874016 0 0 0 -7.748031,0 3.874016,3.874016 0 0 0 7.748031,0 z"
         style="fill:none;stroke:#ff0000;stroke-width:0.07559055;stroke-linecap:round;stroke-opacity:1;stroke-dasharray:none"
         id="path1116" /><path
         d="m 70.015748,1070.9858 a 3.874016,3.874016 0 0 0 -7.748031,0 3.874016,3.874016 0 0 0 7.748031,0 z"
         style="fill:none;stroke:#ff0000;stroke-width:0.07559055;stroke-linecap:round;stroke-opacity:1;stroke-dasharray:none"
         id="path1118" /><path
         d="m 202.29921,1070.9858 a 3.874016,3.874016 0 0 0 -7.74803,0 3.874016,3.874016 0 0 0 7.74803,0 z"
         style="fill:none;stroke:#ff0000;stroke-width:0.07559055;stroke-linecap:round;stroke-opacity:1;stroke-dasharray:none"
         id="path1120" /><path
         d="m 221.19685,1070.9858 a 3.874016,3.874016 0 0 0 -7.74803,0 3.874016,3.874016 0 0 0 7.74803,0 z"
         style="fill:none;stroke:#ff0000;stroke-width:0.07559055;stroke-linecap:round;stroke-opacity:1;stroke-dasharray:none"
         id="path1122" /><path
         d="m 0,1103.622 a 18.897638,18.897638 0 0 0 18.897638,18.8977"
         style="fill:none;stroke:#ff0000;stroke-width:0.07559055;stroke-linecap:round;stroke-opacity:1;stroke-dasharray:none"
         id="path1124" /><path
         style="fill:none;stroke:#ff0000;stroke-width:0.07559055;stroke-linecap:round;stroke-opacity:1;stroke-dasharray:none"
         d="M 18.8976,1122.52 H 245.669"
         id="path1126" /><path
         d="m 245.66929,1122.5197 a 18.897638,18.897638 0 0 0 18.89764,-18.8977"
         style="fill:none;stroke:#ff0000;stroke-width:0.07559055;stroke-linecap:round;stroke-opacity:1;stroke-dasharray:none"
         id="path1128" /><path
         style="fill:none;stroke:#ff0000;stroke-width:0.07559055;stroke-linecap:round;stroke-opacity:1;stroke-dasharray:none"
         d="m 264.567,1103.62 v -65.27"
         id="path1130" /><path
         d="M 264.56693,1038.3496 A 18.897638,18.897638 0 0 0 245.66929,1019.452"
         style="fill:none;stroke:#ff0000;stroke-width:0.07559055;stroke-linecap:round;stroke-opacity:1;stroke-dasharray:none"
         id="path1132" /><path
         style="fill:none;stroke:#ff0000;stroke-width:0.07559055;stroke-linecap:round;stroke-opacity:1;stroke-dasharray:none"
         d="M 245.669,1019.45 H 18.8976"
         id="path1134" /><path
         d="M 18.897638,1019.452 A 18.897638,18.897638 0 0 0 0,1038.3496"
         style="fill:none;stroke:#ff0000;stroke-width:0.07559055;stroke-linecap:round;stroke-opacity:1;stroke-dasharray:none"
         id="path1136" /><path
         style="fill:none;stroke:#ff0000;stroke-width:0.07559055;stroke-linecap:round;stroke-opacity:1;stroke-dasharray:none"
         d="m 0,1038.35 v 65.27"
         id="path1138" /></g></g></svg>
