<?xml version="1.0" encoding="UTF-8" standalone="no"?>
<svg
   viewBox="0 0 793.7007874015749 1122.5196850393702"
   width="793.7007874015749"
   height="1122.5196850393702"
   version="1.1"
   id="svg55"
   sodipodi:docname="flipper_testbed.svg"
   inkscape:version="1.2.2 (732a01da63, 2022-12-09)"
   xmlns:inkscape="http://www.inkscape.org/namespaces/inkscape"
   xmlns:sodipodi="http://sodipodi.sourceforge.net/DTD/sodipodi-0.dtd"
   xmlns="http://www.w3.org/2000/svg"
   xmlns:svg="http://www.w3.org/2000/svg">
  <sodipodi:namedview
     id="namedview57"
     pagecolor="#ffffff"
     bordercolor="#000000"
     borderopacity="0.25"
     inkscape:showpageshadow="2"
     inkscape:pageopacity="0.0"
     inkscape:pagecheckerboard="0"
     inkscape:deskcolor="#d1d1d1"
     showgrid="false"
     inkscape:zoom="1.0129245"
     inkscape:cx="250.26543"
     inkscape:cy="993.65743"
     inkscape:window-width="1920"
     inkscape:window-height="991"
     inkscape:window-x="-9"
     inkscape:window-y="-9"
     inkscape:window-maximized="1"
     inkscape:current-layer="g53" />
  <desc
     id="desc2">plane.DXF - scale = 1.000000, origin = (0.000000, 0.000000), method = manual</desc>
  <defs
     id="defs17">
    <marker
       id="DistanceX"
       orient="auto"
       refX="0.0"
       refY="0.0"
       style="overflow:visible">
      <path
         d="M 3,-3 L -3,3 M 0,-5 L  0,5"
         style="stroke:#000000; stroke-width:0.5"
         id="path4" />
    </marker>
    <pattern
       id="Hatch"
       patternUnits="userSpaceOnUse"
       width="8"
       height="8"
       x="0"
       y="0">
      <path
         d="M8 4 l-4,4"
         stroke="#000000"
         stroke-width="0.25"
         linecap="square"
         id="path7" />
      <path
         d="M6 2 l-4,4"
         stroke="#000000"
         stroke-width="0.25"
         linecap="square"
         id="path9" />
      <path
         d="M4 0 l-4,4"
         stroke="#000000"
         stroke-width="0.25"
         linecap="square"
         id="path11" />
    </pattern>
    <symbol
       id="*Model_Space" />
    <symbol
       id="*Paper_Space" />
    <symbol
       id="*Paper_Space0" />
  </defs>
  <g
     inkscape:groupmode="layer"
     inkscape:label="0"
     id="g53">
    <path
       d="m 115.41239,987.31215 a 3.874016,3.874016 0 0 0 -7.74803,0 3.874016,3.874016 0 0 0 7.74803,0 z"
       style="fill:none;stroke:#ff0000;stroke-width:0.07559055;stroke-linecap:round;stroke-dasharray:none"
       id="path19" />
    <path
       d="m 228.79822,873.92632 a 3.874016,3.874016 0 0 0 -7.74803,0 3.874016,3.874016 0 0 0 7.74803,0 z"
       style="fill:none;stroke:#ff0000;stroke-width:0.07559055;stroke-linecap:round;stroke-dasharray:none"
       id="path21" />
    <path
       d="m 209.80609,930.61924 a 41.574803,41.574803 0 0 0 -83.14961,0 41.574803,41.574803 0 0 0 83.14961,0 z"
       style="fill:none;stroke:#ff0000;stroke-width:0.07559055;stroke-linecap:round;stroke-dasharray:none"
       id="path23" />
    <path
       d="m 115.41239,873.92632 a 3.874016,3.874016 0 0 0 -7.74803,0 3.874016,3.874016 0 0 0 7.74803,0 z"
       style="fill:none;stroke:#ff0000;stroke-width:0.07559055;stroke-linecap:round;stroke-dasharray:none"
       id="path25" />
    <path
       d="m 228.79822,987.31215 a 3.874016,3.874016 0 0 0 -7.74803,0 3.874016,3.874016 0 0 0 7.74803,0 z"
       style="fill:none;stroke:#ff0000;stroke-width:0.07559055;stroke-linecap:round;stroke-dasharray:none"
       id="path27" />
    <path
       style="fill:none;stroke:#ff0000;stroke-width:0.07559055;stroke-linecap:round;stroke-dasharray:none"
       d="M 54.845358,855.03179 V 1006.2118"
       id="path29" />
    <path
       style="fill:none;stroke:#ff0000;stroke-width:0.07559055;stroke-linecap:round;stroke-dasharray:none"
       d="M 243.82136,817.23179 H 92.640358"
       id="path31" />
    <path
       style="fill:none;stroke:#ff0000;stroke-width:0.07559055;stroke-linecap:round;stroke-dasharray:none"
       d="M 281.61736,1006.2118 V 855.03179"
       id="path33" />
    <path
       style="fill:none;stroke:#ff0000;stroke-width:0.07559055;stroke-linecap:round;stroke-dasharray:none"
       d="M 92.640358,1044.0018 H 243.82136"
       id="path35" />
    <path
       d="m 54.84546,1006.2098 a 37.795276,37.795276 0 0 0 37.795276,37.7953"
       style="fill:none;stroke:#ff0000;stroke-width:0.07559055;stroke-linecap:round;stroke-dasharray:none"
       id="path37" />
    <path
       d="M 92.640736,817.23341 A 37.795276,37.795276 0 0 0 54.84546,855.02869"
       style="fill:none;stroke:#ff0000;stroke-width:0.07559055;stroke-linecap:round;stroke-dasharray:none"
       id="path39" />
    <path
       d="M 281.61711,855.02869 A 37.795276,37.795276 0 0 0 243.82184,817.23341"
       style="fill:none;stroke:#ff0000;stroke-width:0.07559055;stroke-linecap:round;stroke-dasharray:none"
       id="path41" />
    <path
       d="m 243.82184,1044.0051 a 37.795276,37.795276 0 0 0 37.79527,-37.7953"
       style="fill:none;stroke:#ff0000;stroke-width:0.07559055;stroke-linecap:round;stroke-dasharray:none"
       id="path43" />
    <path
       d="m 462.25374,943.67768 a 30.236221,30.236221 0 0 0 -60.47244,0 30.236221,30.236221 0 0 0 60.47244,0 z"
       style="fill:none;stroke:#ff0000;stroke-width:0.07559055;stroke-linecap:round;stroke-dasharray:none"
       id="path2030" />
    <path
       d="m 380.04902,886.98478 a 4.72441,4.72441 0 0 0 -9.44882,0 4.72441,4.72441 0 0 0 9.44882,0 z"
       style="fill:none;stroke:#ff0000;stroke-width:0.07559055;stroke-linecap:round;stroke-dasharray:none"
       id="path2032" />
    <path
       d="m 493.43484,886.98478 a 4.7244095,4.7244095 0 0 0 -9.44881,0 4.7244095,4.7244095 0 0 0 9.44881,0 z"
       style="fill:none;stroke:#ff0000;stroke-width:0.07559055;stroke-linecap:round;stroke-dasharray:none"
       id="path2034" />
    <path
       d="m 493.43484,1000.3706 a 4.7244095,4.7244095 0 0 0 -9.44881,0 4.7244095,4.7244095 0 0 0 9.44881,0 z"
       style="fill:none;stroke:#ff0000;stroke-width:0.07559055;stroke-linecap:round;stroke-dasharray:none"
       id="path2036" />
    <path
       d="m 380.04902,1000.3706 a 4.72441,4.72441 0 0 0 -9.44882,0 4.72441,4.72441 0 0 0 9.44882,0 z"
       style="fill:none;stroke:#ff0000;stroke-width:0.07559055;stroke-linecap:round;stroke-dasharray:none"
       id="path2038" />
    <path
       style="fill:none;stroke:#ff0000;stroke-width:0.07559055;stroke-linecap:round;stroke-dasharray:none"
       d="M 356.42697,879.42858 V 1007.9286"
       id="path2040" />
    <path
       style="fill:none;stroke:#ff0000;stroke-width:0.07559055;stroke-linecap:round;stroke-dasharray:none"
       d="M 496.26997,868.08858 H 367.76557"
       id="path2042" />
    <path
       style="fill:none;stroke:#ff0000;stroke-width:0.07559055;stroke-linecap:round;stroke-dasharray:none"
       d="M 507.60797,1007.9286 V 879.42858"
       id="path2044" />
    <path
       style="fill:none;stroke:#ff0000;stroke-width:0.07559055;stroke-linecap:round;stroke-dasharray:none"
       d="m 367.76557,1019.2686 h 128.5044"
       id="path2046" />
    <path
       d="m 356.42697,1007.9297 a 11.338583,11.338583 0 0 0 11.33858,11.3386"
       style="fill:none;stroke:#ff0000;stroke-width:0.07559055;stroke-linecap:round;stroke-dasharray:none"
       id="path2048" />
    <path
       d="m 367.76555,868.08718 a 11.338583,11.338583 0 0 0 -11.33858,11.3386"
       style="fill:none;stroke:#ff0000;stroke-width:0.07559055;stroke-linecap:round;stroke-dasharray:none"
       id="path2050" />
    <path
       d="m 507.60807,879.42578 a 11.338583,11.338583 0 0 0 -11.33858,-11.3386"
       style="fill:none;stroke:#ff0000;stroke-width:0.07559055;stroke-linecap:round;stroke-dasharray:none"
       id="path2052" />
    <path
       d="m 496.26949,1019.2683 a 11.338583,11.338583 0 0 0 11.33858,-11.3386"
       style="fill:none;stroke:#ff0000;stroke-width:0.07559055;stroke-linecap:round;stroke-dasharray:none"
       id="path2054" />
    <path
       d="m 681.90003,944.6649 a 41.574803,41.574803 0 0 0 -83.1496,0 41.574803,41.574803 0 0 0 83.1496,0 z"
       style="fill:none;stroke:#ff0000;stroke-width:0.07559055;stroke-linecap:round;stroke-dasharray:none"
       id="path3788" />
    <path
       d="m 589.11263,887.972 a 5.480315,5.480315 0 0 0 -10.96063,0 5.480315,5.480315 0 0 0 10.96063,0 z"
       style="fill:none;stroke:#ff0000;stroke-width:0.07559055;stroke-linecap:round;stroke-dasharray:none"
       id="path3790" />
    <path
       d="m 702.49846,887.972 a 5.480315,5.480315 0 0 0 -10.96063,0 5.480315,5.480315 0 0 0 10.96063,0 z"
       style="fill:none;stroke:#ff0000;stroke-width:0.07559055;stroke-linecap:round;stroke-dasharray:none"
       id="path3792" />
    <path
       d="m 702.49846,1001.3578 a 5.480315,5.480315 0 0 0 -10.96063,0 5.480315,5.480315 0 0 0 10.96063,0 z"
       style="fill:none;stroke:#ff0000;stroke-width:0.07559055;stroke-linecap:round;stroke-dasharray:none"
       id="path3794" />
    <path
       d="m 589.11263,1001.3578 a 5.480315,5.480315 0 0 0 -10.96063,0 5.480315,5.480315 0 0 0 10.96063,0 z"
       style="fill:none;stroke:#ff0000;stroke-width:0.07559055;stroke-linecap:round;stroke-dasharray:none"
       id="path3796" />
    <path
       style="fill:none;stroke:#ff0000;stroke-width:0.07559055;stroke-linecap:round;stroke-dasharray:none"
       d="m 564.73468,880.4158 v 128.5"
       id="path3798" />
    <path
       style="fill:none;stroke:#ff0000;stroke-width:0.07559055;stroke-linecap:round;stroke-dasharray:none"
       d="M 704.57768,869.0758 H 576.07328"
       id="path3800" />
    <path
       style="fill:none;stroke:#ff0000;stroke-width:0.07559055;stroke-linecap:round;stroke-dasharray:none"
       d="m 715.91568,1008.9158 v -128.5"
       id="path3802" />
    <path
       style="fill:none;stroke:#ff0000;stroke-width:0.07559055;stroke-linecap:round;stroke-dasharray:none"
       d="m 576.07328,1020.2558 h 128.5044"
       id="path3804" />
    <path
       d="m 564.73468,1008.9169 a 11.338583,11.338583 0 0 0 11.33858,11.3386"
       style="fill:none;stroke:#ff0000;stroke-width:0.07559055;stroke-linecap:round;stroke-dasharray:none"
       id="path3806" />
    <path
       d="M 576.07326,869.0744 A 11.338583,11.338583 0 0 0 564.73468,880.413"
       style="fill:none;stroke:#ff0000;stroke-width:0.07559055;stroke-linecap:round;stroke-dasharray:none"
       id="path3808" />
    <path
       d="M 715.91578,880.413 A 11.338583,11.338583 0 0 0 704.5772,869.0744"
       style="fill:none;stroke:#ff0000;stroke-width:0.07559055;stroke-linecap:round;stroke-dasharray:none"
       id="path3810" />
    <path
       d="m 704.5772,1020.2555 a 11.338583,11.338583 0 0 0 11.33858,-11.3386"
       style="fill:none;stroke:#ff0000;stroke-width:0.07559055;stroke-linecap:round;stroke-dasharray:none"
       id="path3812" />
  </g>
</svg>
