999
"DXF R12 Output" (www.mydxf.blogspot.com)
 0 
SECTION
 2 
HEADER
 9 
$ACADVER
 1 
AC1009
 9 
$EXTMIN
 10 
 0 
 20 
 0 
 9 
$EXTMAX
 10 
 8.5 
 20 
 11 
 0 
ENDSEC
 0 
SECTION
 2 
ENTITIES
0
LINE
8
Layer 1
10
0.793749
20
297.794000
11
-0.793749
21
296.206000
0
LINE
8
Layer 1
10
0.000000
20
298.323000
11
0.000000
21
295.677000
0
LINE
8
Layer 1
10
2.116660
20
295.942000
11
1.058330
21
294.883670
0
LINE
8
Layer 1
10
1.587500
20
296.471000
11
0.529170
21
295.412670
0
LINE
8
Layer 1
10
1.058330
20
297.000000
11
0.000000
21
295.941670
0
LINE
8
0
10
30.536200
20
35.774000
11
30.398876
21
36.286500
0
LINE
8
0
10
30.398876
20
36.286500
11
30.023700
21
36.661676
0
LINE
8
0
10
30.023700
20
36.661676
11
29.511200
21
36.799000
0
LINE
8
0
10
29.511200
20
36.799000
11
28.998700
21
36.661676
0
LINE
8
0
10
28.998700
20
36.661676
11
28.623524
21
36.286500
0
LINE
8
0
10
28.623524
20
36.286500
11
28.486200
21
35.774000
0
LINE
8
0
10
28.486200
20
35.774000
11
28.623524
21
35.261500
0
LINE
8
0
10
28.623524
20
35.261500
11
28.998700
21
34.886324
0
LINE
8
0
10
28.998700
20
34.886324
11
29.511200
21
34.749000
0
LINE
8
0
10
29.511200
20
34.749000
11
30.023700
21
34.886324
0
LINE
8
0
10
30.023700
20
34.886324
11
30.398876
21
35.261500
0
LINE
8
0
10
30.398876
20
35.261500
11
30.536200
21
35.774000
0
LINE
8
0
10
30.536200
20
35.774000
11
30.536200
21
35.774000
0
LINE
8
0
10
60.536100
20
65.774000
11
60.398776
21
66.286500
0
LINE
8
0
10
60.398776
20
66.286500
11
60.023600
21
66.661676
0
LINE
8
0
10
60.023600
20
66.661676
11
59.511100
21
66.799000
0
LINE
8
0
10
59.511100
20
66.799000
11
58.998600
21
66.661676
0
LINE
8
0
10
58.998600
20
66.661676
11
58.623424
21
66.286500
0
LINE
8
0
10
58.623424
20
66.286500
11
58.486100
21
65.774000
0
LINE
8
0
10
58.486100
20
65.774000
11
58.623424
21
65.261500
0
LINE
8
0
10
58.623424
20
65.261500
11
58.998600
21
64.886324
0
LINE
8
0
10
58.998600
20
64.886324
11
59.511100
21
64.749000
0
LINE
8
0
10
59.511100
20
64.749000
11
60.023600
21
64.886324
0
LINE
8
0
10
60.023600
20
64.886324
11
60.398776
21
65.261500
0
LINE
8
0
10
60.398776
20
65.261500
11
60.536100
21
65.774000
0
LINE
8
0
10
60.536100
20
65.774000
11
60.536100
21
65.774000
0
LINE
8
0
10
55.511100
20
50.774000
11
55.414365
21
52.231056
0
LINE
8
0
10
55.414365
20
52.231056
11
55.130330
21
53.644094
0
LINE
8
0
10
55.130330
20
53.644094
11
54.668250
21
54.997086
0
LINE
8
0
10
54.668250
20
54.997086
11
54.037379
21
56.274000
0
LINE
8
0
10
54.037379
20
56.274000
11
53.246974
21
57.458807
0
LINE
8
0
10
53.246974
20
57.458807
11
52.306289
21
58.535476
0
LINE
8
0
10
52.306289
20
58.535476
11
51.224580
21
59.487977
0
LINE
8
0
10
51.224580
20
59.487977
11
50.011100
21
60.300279
0
LINE
8
0
10
50.011100
20
60.300279
11
48.700885
21
60.945032
0
LINE
8
0
10
48.700885
20
60.945032
11
47.335140
21
61.405570
0
LINE
8
0
10
47.335140
20
61.405570
11
45.932375
21
61.681892
0
LINE
8
0
10
45.932375
20
61.681892
11
44.511100
21
61.774000
0
LINE
8
0
10
44.511100
20
61.774000
11
43.089825
21
61.681892
0
LINE
8
0
10
43.089825
20
61.681892
11
41.687060
21
61.405570
0
LINE
8
0
10
41.687060
20
61.405570
11
40.321315
21
60.945032
0
LINE
8
0
10
40.321315
20
60.945032
11
39.011100
21
60.300279
0
LINE
8
0
10
39.011100
20
60.300279
11
37.797620
21
59.487977
0
LINE
8
0
10
37.797620
20
59.487977
11
36.715911
21
58.535476
0
LINE
8
0
10
36.715911
20
58.535476
11
35.775226
21
57.458807
0
LINE
8
0
10
35.775226
20
57.458807
11
34.984821
21
56.274000
0
LINE
8
0
10
34.984821
20
56.274000
11
34.353950
21
54.997086
0
LINE
8
0
10
34.353950
20
54.997086
11
33.891870
21
53.644094
0
LINE
8
0
10
33.891870
20
53.644094
11
33.607835
21
52.231056
0
LINE
8
0
10
33.607835
20
52.231056
11
33.511100
21
50.774000
0
LINE
8
0
10
33.511100
20
50.774000
11
33.607835
21
49.316944
0
LINE
8
0
10
33.607835
20
49.316944
11
33.891870
21
47.903906
0
LINE
8
0
10
33.891870
20
47.903906
11
34.353950
21
46.550914
0
LINE
8
0
10
34.353950
20
46.550914
11
34.984821
21
45.274000
0
LINE
8
0
10
34.984821
20
45.274000
11
35.775226
21
44.089193
0
LINE
8
0
10
35.775226
20
44.089193
11
36.715911
21
43.012524
0
LINE
8
0
10
36.715911
20
43.012524
11
37.797620
21
42.060023
0
LINE
8
0
10
37.797620
20
42.060023
11
39.011100
21
41.247721
0
LINE
8
0
10
39.011100
20
41.247721
11
40.321315
21
40.602968
0
LINE
8
0
10
40.321315
20
40.602968
11
41.687060
21
40.142430
0
LINE
8
0
10
41.687060
20
40.142430
11
43.089825
21
39.866108
0
LINE
8
0
10
43.089825
20
39.866108
11
44.511100
21
39.774000
0
LINE
8
0
10
44.511100
20
39.774000
11
45.932375
21
39.866108
0
LINE
8
0
10
45.932375
20
39.866108
11
47.335140
21
40.142430
0
LINE
8
0
10
47.335140
20
40.142430
11
48.700885
21
40.602968
0
LINE
8
0
10
48.700885
20
40.602968
11
50.011100
21
41.247721
0
LINE
8
0
10
50.011100
20
41.247721
11
51.224580
21
42.060023
0
LINE
8
0
10
51.224580
20
42.060023
11
52.306289
21
43.012524
0
LINE
8
0
10
52.306289
20
43.012524
11
53.246974
21
44.089193
0
LINE
8
0
10
53.246974
20
44.089193
11
54.037379
21
45.274000
0
LINE
8
0
10
54.037379
20
45.274000
11
54.668250
21
46.550914
0
LINE
8
0
10
54.668250
20
46.550914
11
55.130330
21
47.903906
0
LINE
8
0
10
55.130330
20
47.903906
11
55.414365
21
49.316944
0
LINE
8
0
10
55.414365
20
49.316944
11
55.511100
21
50.774000
0
LINE
8
0
10
55.511100
20
50.774000
11
55.511100
21
50.774000
0
LINE
8
0
10
30.536200
20
65.774000
11
30.398876
21
66.286500
0
LINE
8
0
10
30.398876
20
66.286500
11
30.023700
21
66.661676
0
LINE
8
0
10
30.023700
20
66.661676
11
29.511200
21
66.799000
0
LINE
8
0
10
29.511200
20
66.799000
11
28.998700
21
66.661676
0
LINE
8
0
10
28.998700
20
66.661676
11
28.623524
21
66.286500
0
LINE
8
0
10
28.623524
20
66.286500
11
28.486200
21
65.774000
0
LINE
8
0
10
28.486200
20
65.774000
11
28.623524
21
65.261500
0
LINE
8
0
10
28.623524
20
65.261500
11
28.998700
21
64.886324
0
LINE
8
0
10
28.998700
20
64.886324
11
29.511200
21
64.749000
0
LINE
8
0
10
29.511200
20
64.749000
11
30.023700
21
64.886324
0
LINE
8
0
10
30.023700
20
64.886324
11
30.398876
21
65.261500
0
LINE
8
0
10
30.398876
20
65.261500
11
30.536200
21
65.774000
0
LINE
8
0
10
30.536200
20
65.774000
11
30.536200
21
65.774000
0
LINE
8
0
10
60.536100
20
35.774000
11
60.398776
21
36.286500
0
LINE
8
0
10
60.398776
20
36.286500
11
60.023600
21
36.661676
0
LINE
8
0
10
60.023600
20
36.661676
11
59.511100
21
36.799000
0
LINE
8
0
10
59.511100
20
36.799000
11
58.998600
21
36.661676
0
LINE
8
0
10
58.998600
20
36.661676
11
58.623424
21
36.286500
0
LINE
8
0
10
58.623424
20
36.286500
11
58.486100
21
35.774000
0
LINE
8
0
10
58.486100
20
35.774000
11
58.623424
21
35.261500
0
LINE
8
0
10
58.623424
20
35.261500
11
58.998600
21
34.886324
0
LINE
8
0
10
58.998600
20
34.886324
11
59.511100
21
34.749000
0
LINE
8
0
10
59.511100
20
34.749000
11
60.023600
21
34.886324
0
LINE
8
0
10
60.023600
20
34.886324
11
60.398776
21
35.261500
0
LINE
8
0
10
60.398776
20
35.261500
11
60.536100
21
35.774000
0
LINE
8
0
10
60.536100
20
35.774000
11
60.536100
21
35.774000
0
LINE
8
0
10
14.511100
20
70.773100
11
14.511100
21
30.773500
0
LINE
8
0
10
64.511000
20
80.774400
11
24.511100
21
80.774400
0
LINE
8
0
10
74.511200
20
30.773500
11
74.511200
21
70.773100
0
LINE
8
0
10
24.511100
20
20.774900
11
64.511000
21
20.774900
0
LINE
8
0
10
14.511200
20
30.774000
11
14.705122
21
28.813989
0
LINE
8
0
10
14.705122
20
28.813989
11
15.272404
21
26.947170
0
LINE
8
0
10
15.272404
20
26.947170
11
16.191316
21
25.226000
0
LINE
8
0
10
16.191316
20
25.226000
11
17.440129
21
23.702939
0
LINE
8
0
10
17.440129
20
23.702939
11
18.963190
21
22.454126
0
LINE
8
0
10
18.963190
20
22.454126
11
20.684360
21
21.535214
0
LINE
8
0
10
20.684360
20
21.535214
11
22.551179
21
20.967932
0
LINE
8
0
10
22.551179
20
20.967932
11
24.511190
21
20.774010
0
LINE
8
0
10
24.511200
20
80.773900
11
22.551186
21
80.579979
0
LINE
8
0
10
22.551186
20
80.579979
11
20.684364
21
80.012698
0
LINE
8
0
10
20.684364
20
80.012698
11
18.963193
21
79.093786
0
LINE
8
0
10
18.963193
20
79.093786
11
17.440129
21
77.844971
0
LINE
8
0
10
17.440129
20
77.844971
11
16.191314
21
76.321907
0
LINE
8
0
10
16.191314
20
76.321907
11
15.272402
21
74.600736
0
LINE
8
0
10
15.272402
20
74.600736
11
14.705121
21
72.733914
0
LINE
8
0
10
14.705121
20
72.733914
11
14.511200
21
70.773900
0
LINE
8
0
10
74.511100
20
70.773900
11
74.317179
21
72.733914
0
LINE
8
0
10
74.317179
20
72.733914
11
73.749898
21
74.600736
0
LINE
8
0
10
73.749898
20
74.600736
11
72.830986
21
76.321907
0
LINE
8
0
10
72.830986
20
76.321907
11
71.582171
21
77.844971
0
LINE
8
0
10
71.582171
20
77.844971
11
70.059107
21
79.093786
0
LINE
8
0
10
70.059107
20
79.093786
11
68.337936
21
80.012698
0
LINE
8
0
10
68.337936
20
80.012698
11
66.471114
21
80.579979
0
LINE
8
0
10
66.471114
20
80.579979
11
64.511100
21
80.773900
0
LINE
8
0
10
64.511100
20
20.774000
11
66.471111
21
20.967922
0
LINE
8
0
10
66.471111
20
20.967922
11
68.337930
21
21.535204
0
LINE
8
0
10
68.337930
20
21.535204
11
70.059100
21
22.454116
0
LINE
8
0
10
70.059100
20
22.454116
11
71.582161
21
23.702929
0
LINE
8
0
10
71.582161
20
23.702929
11
72.830974
21
25.225990
0
LINE
8
0
10
72.830974
20
25.225990
11
73.749886
21
26.947160
0
LINE
8
0
10
73.749886
20
26.947160
11
74.317168
21
28.813979
0
LINE
8
0
10
74.317168
20
28.813979
11
74.511090
21
30.773990
0
LINE
8
0
10
122.304000
20
47.318900
11
122.027071
21
49.406239
0
LINE
8
0
10
122.027071
20
49.406239
11
121.232196
21
51.318895
0
LINE
8
0
10
121.232196
20
51.318895
11
119.973222
21
52.963603
0
LINE
8
0
10
119.973222
20
52.963603
11
118.303995
21
54.247095
0
LINE
8
0
10
118.303995
20
54.247095
11
116.357845
21
55.050941
0
LINE
8
0
10
116.357845
20
55.050941
11
114.304000
21
55.318890
0
LINE
8
0
10
114.304000
20
55.318890
11
112.250155
21
55.050941
0
LINE
8
0
10
112.250155
20
55.050941
11
110.304005
21
54.247095
0
LINE
8
0
10
110.304005
20
54.247095
11
108.634778
21
52.963603
0
LINE
8
0
10
108.634778
20
52.963603
11
107.375805
21
51.318895
0
LINE
8
0
10
107.375805
20
51.318895
11
106.580933
21
49.406239
0
LINE
8
0
10
106.580933
20
49.406239
11
106.304010
21
47.318900
0
LINE
8
0
10
106.304010
20
47.318900
11
106.580936
21
45.231561
0
LINE
8
0
10
106.580936
20
45.231561
11
107.375810
21
43.318905
0
LINE
8
0
10
107.375810
20
43.318905
11
108.634783
21
41.674197
0
LINE
8
0
10
108.634783
20
41.674197
11
110.304010
21
40.390705
0
LINE
8
0
10
110.304010
20
40.390705
11
112.250160
21
39.586859
0
LINE
8
0
10
112.250160
20
39.586859
11
114.304005
21
39.318910
0
LINE
8
0
10
114.304005
20
39.318910
11
116.357850
21
39.586859
0
LINE
8
0
10
116.357850
20
39.586859
11
118.304000
21
40.390705
0
LINE
8
0
10
118.304000
20
40.390705
11
119.973227
21
41.674197
0
LINE
8
0
10
119.973227
20
41.674197
11
121.232200
21
43.318905
0
LINE
8
0
10
121.232200
20
43.318905
11
122.027072
21
45.231561
0
LINE
8
0
10
122.027072
20
45.231561
11
122.303995
21
47.318900
0
LINE
8
0
10
122.303995
20
47.318900
11
122.304000
21
47.318900
0
LINE
8
0
10
100.555000
20
62.318900
11
100.387532
21
62.943900
0
LINE
8
0
10
100.387532
20
62.943900
11
99.930000
21
63.401432
0
LINE
8
0
10
99.930000
20
63.401432
11
99.305000
21
63.568900
0
LINE
8
0
10
99.305000
20
63.568900
11
98.680000
21
63.401432
0
LINE
8
0
10
98.680000
20
63.401432
11
98.222468
21
62.943900
0
LINE
8
0
10
98.222468
20
62.943900
11
98.055000
21
62.318900
0
LINE
8
0
10
98.055000
20
62.318900
11
98.222468
21
61.693900
0
LINE
8
0
10
98.222468
20
61.693900
11
98.680000
21
61.236368
0
LINE
8
0
10
98.680000
20
61.236368
11
99.305000
21
61.068900
0
LINE
8
0
10
99.305000
20
61.068900
11
99.930000
21
61.236368
0
LINE
8
0
10
99.930000
20
61.236368
11
100.387532
21
61.693900
0
LINE
8
0
10
100.387532
20
61.693900
11
100.555000
21
62.318900
0
LINE
8
0
10
100.555000
20
62.318900
11
100.555000
21
62.318900
0
LINE
8
0
10
130.554000
20
62.318900
11
130.454753
21
62.804321
0
LINE
8
0
10
130.454753
20
62.804321
11
130.186638
21
63.200497
0
LINE
8
0
10
130.186638
20
63.200497
11
129.789704
21
63.467491
0
LINE
8
0
10
129.789704
20
63.467491
11
129.304005
21
63.565364
0
LINE
8
0
10
129.304005
20
63.565364
11
128.818306
21
63.467491
0
LINE
8
0
10
128.818306
20
63.467491
11
128.421372
21
63.200497
0
LINE
8
0
10
128.421372
20
63.200497
11
128.153257
21
62.804321
0
LINE
8
0
10
128.153257
20
62.804321
11
128.054010
21
62.318900
0
LINE
8
0
10
128.054010
20
62.318900
11
128.153257
21
61.833479
0
LINE
8
0
10
128.153257
20
61.833479
11
128.421372
21
61.437303
0
LINE
8
0
10
128.421372
20
61.437303
11
128.818306
21
61.170309
0
LINE
8
0
10
128.818306
20
61.170309
11
129.304005
21
61.072436
0
LINE
8
0
10
129.304005
20
61.072436
11
129.789704
21
61.170309
0
LINE
8
0
10
129.789704
20
61.170309
11
130.186638
21
61.437303
0
LINE
8
0
10
130.186638
20
61.437303
11
130.454753
21
61.833479
0
LINE
8
0
10
130.454753
20
61.833479
11
130.554000
21
62.318900
0
LINE
8
0
10
130.554000
20
62.318900
11
130.554000
21
62.318900
0
LINE
8
0
10
130.554000
20
32.318900
11
130.454753
21
32.804321
0
LINE
8
0
10
130.454753
20
32.804321
11
130.186638
21
33.200497
0
LINE
8
0
10
130.186638
20
33.200497
11
129.789704
21
33.467491
0
LINE
8
0
10
129.789704
20
33.467491
11
129.304005
21
33.565364
0
LINE
8
0
10
129.304005
20
33.565364
11
128.818306
21
33.467491
0
LINE
8
0
10
128.818306
20
33.467491
11
128.421372
21
33.200497
0
LINE
8
0
10
128.421372
20
33.200497
11
128.153257
21
32.804321
0
LINE
8
0
10
128.153257
20
32.804321
11
128.054010
21
32.318900
0
LINE
8
0
10
128.054010
20
32.318900
11
128.153257
21
31.833479
0
LINE
8
0
10
128.153257
20
31.833479
11
128.421372
21
31.437303
0
LINE
8
0
10
128.421372
20
31.437303
11
128.818306
21
31.170309
0
LINE
8
0
10
128.818306
20
31.170309
11
129.304005
21
31.072436
0
LINE
8
0
10
129.304005
20
31.072436
11
129.789704
21
31.170309
0
LINE
8
0
10
129.789704
20
31.170309
11
130.186638
21
31.437303
0
LINE
8
0
10
130.186638
20
31.437303
11
130.454753
21
31.833479
0
LINE
8
0
10
130.454753
20
31.833479
11
130.554000
21
32.318900
0
LINE
8
0
10
130.554000
20
32.318900
11
130.554000
21
32.318900
0
LINE
8
0
10
100.555000
20
32.318900
11
100.387532
21
32.943900
0
LINE
8
0
10
100.387532
20
32.943900
11
99.930000
21
33.401432
0
LINE
8
0
10
99.930000
20
33.401432
11
99.305000
21
33.568900
0
LINE
8
0
10
99.305000
20
33.568900
11
98.680000
21
33.401432
0
LINE
8
0
10
98.680000
20
33.401432
11
98.222468
21
32.943900
0
LINE
8
0
10
98.222468
20
32.943900
11
98.055000
21
32.318900
0
LINE
8
0
10
98.055000
20
32.318900
11
98.222468
21
31.693900
0
LINE
8
0
10
98.222468
20
31.693900
11
98.680000
21
31.236368
0
LINE
8
0
10
98.680000
20
31.236368
11
99.305000
21
31.068900
0
LINE
8
0
10
99.305000
20
31.068900
11
99.930000
21
31.236368
0
LINE
8
0
10
99.930000
20
31.236368
11
100.387532
21
31.693900
0
LINE
8
0
10
100.387532
20
31.693900
11
100.555000
21
32.318900
0
LINE
8
0
10
100.555000
20
32.318900
11
100.555000
21
32.318900
0
LINE
8
0
10
94.304500
20
64.318100
11
94.304500
21
30.319200
0
LINE
8
0
10
131.305000
20
67.318500
11
97.304500
21
67.318500
0
LINE
8
0
10
134.304000
20
30.319200
11
134.304000
21
64.318100
0
LINE
8
0
10
97.304500
20
27.318900
11
131.305000
21
27.318900
0
LINE
8
0
10
94.304500
20
30.318900
11
94.532861
21
29.170850
0
LINE
8
0
10
94.532861
20
29.170850
11
95.183180
21
28.197580
0
LINE
8
0
10
95.183180
20
28.197580
11
96.156450
21
27.547261
0
LINE
8
0
10
96.156450
20
27.547261
11
97.304500
21
27.318900
0
LINE
8
0
10
97.304500
20
67.318900
11
96.156450
21
67.090539
0
LINE
8
0
10
96.156450
20
67.090539
11
95.183180
21
66.440220
0
LINE
8
0
10
95.183180
20
66.440220
11
94.532861
21
65.466950
0
LINE
8
0
10
94.532861
20
65.466950
11
94.304500
21
64.318900
0
LINE
8
0
10
134.304000
20
64.318900
11
134.075639
21
65.466950
0
LINE
8
0
10
134.075639
20
65.466950
11
133.425320
21
66.440220
0
LINE
8
0
10
133.425320
20
66.440220
11
132.452050
21
67.090539
0
LINE
8
0
10
132.452050
20
67.090539
11
131.304000
21
67.318900
0
LINE
8
0
10
131.304000
20
27.318900
11
132.452050
21
27.547261
0
LINE
8
0
10
132.452050
20
27.547261
11
133.425320
21
28.197580
0
LINE
8
0
10
133.425320
20
28.197580
11
134.075639
21
29.170850
0
LINE
8
0
10
134.075639
20
29.170850
11
134.304000
21
30.318900
0
LINE
8
0
10
180.419000
20
47.057700
11
180.322265
21
48.514756
0
LINE
8
0
10
180.322265
20
48.514756
11
180.038230
21
49.927794
0
LINE
8
0
10
180.038230
20
49.927794
11
179.576150
21
51.280786
0
LINE
8
0
10
179.576150
20
51.280786
11
178.945279
21
52.557700
0
LINE
8
0
10
178.945279
20
52.557700
11
178.154874
21
53.742507
0
LINE
8
0
10
178.154874
20
53.742507
11
177.214189
21
54.819176
0
LINE
8
0
10
177.214189
20
54.819176
11
176.132480
21
55.771677
0
LINE
8
0
10
176.132480
20
55.771677
11
174.919000
21
56.583979
0
LINE
8
0
10
174.919000
20
56.583979
11
173.608785
21
57.228732
0
LINE
8
0
10
173.608785
20
57.228732
11
172.243040
21
57.689270
0
LINE
8
0
10
172.243040
20
57.689270
11
170.840275
21
57.965592
0
LINE
8
0
10
170.840275
20
57.965592
11
169.419000
21
58.057700
0
LINE
8
0
10
169.419000
20
58.057700
11
167.997725
21
57.965592
0
LINE
8
0
10
167.997725
20
57.965592
11
166.594960
21
57.689270
0
LINE
8
0
10
166.594960
20
57.689270
11
165.229215
21
57.228732
0
LINE
8
0
10
165.229215
20
57.228732
11
163.919000
21
56.583979
0
LINE
8
0
10
163.919000
20
56.583979
11
162.705520
21
55.771677
0
LINE
8
0
10
162.705520
20
55.771677
11
161.623811
21
54.819176
0
LINE
8
0
10
161.623811
20
54.819176
11
160.683126
21
53.742507
0
LINE
8
0
10
160.683126
20
53.742507
11
159.892721
21
52.557700
0
LINE
8
0
10
159.892721
20
52.557700
11
159.261850
21
51.280786
0
LINE
8
0
10
159.261850
20
51.280786
11
158.799770
21
49.927794
0
LINE
8
0
10
158.799770
20
49.927794
11
158.515735
21
48.514756
0
LINE
8
0
10
158.515735
20
48.514756
11
158.419000
21
47.057700
0
LINE
8
0
10
158.419000
20
47.057700
11
158.515735
21
45.600644
0
LINE
8
0
10
158.515735
20
45.600644
11
158.799770
21
44.187606
0
LINE
8
0
10
158.799770
20
44.187606
11
159.261850
21
42.834614
0
LINE
8
0
10
159.261850
20
42.834614
11
159.892721
21
41.557700
0
LINE
8
0
10
159.892721
20
41.557700
11
160.683126
21
40.372893
0
LINE
8
0
10
160.683126
20
40.372893
11
161.623811
21
39.296224
0
LINE
8
0
10
161.623811
20
39.296224
11
162.705520
21
38.343723
0
LINE
8
0
10
162.705520
20
38.343723
11
163.919000
21
37.531421
0
LINE
8
0
10
163.919000
20
37.531421
11
165.229215
21
36.886668
0
LINE
8
0
10
165.229215
20
36.886668
11
166.594960
21
36.426130
0
LINE
8
0
10
166.594960
20
36.426130
11
167.997725
21
36.149808
0
LINE
8
0
10
167.997725
20
36.149808
11
169.419000
21
36.057700
0
LINE
8
0
10
169.419000
20
36.057700
11
170.840275
21
36.149808
0
LINE
8
0
10
170.840275
20
36.149808
11
172.243040
21
36.426130
0
LINE
8
0
10
172.243040
20
36.426130
11
173.608785
21
36.886668
0
LINE
8
0
10
173.608785
20
36.886668
11
174.919000
21
37.531421
0
LINE
8
0
10
174.919000
20
37.531421
11
176.132480
21
38.343723
0
LINE
8
0
10
176.132480
20
38.343723
11
177.214189
21
39.296224
0
LINE
8
0
10
177.214189
20
39.296224
11
178.154874
21
40.372893
0
LINE
8
0
10
178.154874
20
40.372893
11
178.945279
21
41.557700
0
LINE
8
0
10
178.945279
20
41.557700
11
179.576150
21
42.834614
0
LINE
8
0
10
179.576150
20
42.834614
11
180.038230
21
44.187606
0
LINE
8
0
10
180.038230
20
44.187606
11
180.322265
21
45.600644
0
LINE
8
0
10
180.322265
20
45.600644
11
180.419000
21
47.057700
0
LINE
8
0
10
180.419000
20
47.057700
11
180.419000
21
47.057700
0
LINE
8
0
10
155.869000
20
62.057700
11
155.674737
21
62.782700
0
LINE
8
0
10
155.674737
20
62.782700
11
155.144000
21
63.313437
0
LINE
8
0
10
155.144000
20
63.313437
11
154.419000
21
63.507700
0
LINE
8
0
10
154.419000
20
63.507700
11
153.694000
21
63.313437
0
LINE
8
0
10
153.694000
20
63.313437
11
153.163263
21
62.782700
0
LINE
8
0
10
153.163263
20
62.782700
11
152.969000
21
62.057700
0
LINE
8
0
10
152.969000
20
62.057700
11
153.163263
21
61.332700
0
LINE
8
0
10
153.163263
20
61.332700
11
153.694000
21
60.801963
0
LINE
8
0
10
153.694000
20
60.801963
11
154.419000
21
60.607700
0
LINE
8
0
10
154.419000
20
60.607700
11
155.144000
21
60.801963
0
LINE
8
0
10
155.144000
20
60.801963
11
155.674737
21
61.332700
0
LINE
8
0
10
155.674737
20
61.332700
11
155.869000
21
62.057700
0
LINE
8
0
10
155.869000
20
62.057700
11
155.869000
21
62.057700
0
LINE
8
0
10
185.869000
20
62.057700
11
185.674737
21
62.782700
0
LINE
8
0
10
185.674737
20
62.782700
11
185.144000
21
63.313437
0
LINE
8
0
10
185.144000
20
63.313437
11
184.419000
21
63.507700
0
LINE
8
0
10
184.419000
20
63.507700
11
183.694000
21
63.313437
0
LINE
8
0
10
183.694000
20
63.313437
11
183.163263
21
62.782700
0
LINE
8
0
10
183.163263
20
62.782700
11
182.969000
21
62.057700
0
LINE
8
0
10
182.969000
20
62.057700
11
183.163263
21
61.332700
0
LINE
8
0
10
183.163263
20
61.332700
11
183.694000
21
60.801963
0
LINE
8
0
10
183.694000
20
60.801963
11
184.419000
21
60.607700
0
LINE
8
0
10
184.419000
20
60.607700
11
185.144000
21
60.801963
0
LINE
8
0
10
185.144000
20
60.801963
11
185.674737
21
61.332700
0
LINE
8
0
10
185.674737
20
61.332700
11
185.869000
21
62.057700
0
LINE
8
0
10
185.869000
20
62.057700
11
185.869000
21
62.057700
0
LINE
8
0
10
185.869000
20
32.057700
11
185.674737
21
32.782700
0
LINE
8
0
10
185.674737
20
32.782700
11
185.144000
21
33.313437
0
LINE
8
0
10
185.144000
20
33.313437
11
184.419000
21
33.507700
0
LINE
8
0
10
184.419000
20
33.507700
11
183.694000
21
33.313437
0
LINE
8
0
10
183.694000
20
33.313437
11
183.163263
21
32.782700
0
LINE
8
0
10
183.163263
20
32.782700
11
182.969000
21
32.057700
0
LINE
8
0
10
182.969000
20
32.057700
11
183.163263
21
31.332700
0
LINE
8
0
10
183.163263
20
31.332700
11
183.694000
21
30.801963
0
LINE
8
0
10
183.694000
20
30.801963
11
184.419000
21
30.607700
0
LINE
8
0
10
184.419000
20
30.607700
11
185.144000
21
30.801963
0
LINE
8
0
10
185.144000
20
30.801963
11
185.674737
21
31.332700
0
LINE
8
0
10
185.674737
20
31.332700
11
185.869000
21
32.057700
0
LINE
8
0
10
185.869000
20
32.057700
11
185.869000
21
32.057700
0
LINE
8
0
10
155.869000
20
32.057700
11
155.674737
21
32.782700
0
LINE
8
0
10
155.674737
20
32.782700
11
155.144000
21
33.313437
0
LINE
8
0
10
155.144000
20
33.313437
11
154.419000
21
33.507700
0
LINE
8
0
10
154.419000
20
33.507700
11
153.694000
21
33.313437
0
LINE
8
0
10
153.694000
20
33.313437
11
153.163263
21
32.782700
0
LINE
8
0
10
153.163263
20
32.782700
11
152.969000
21
32.057700
0
LINE
8
0
10
152.969000
20
32.057700
11
153.163263
21
31.332700
0
LINE
8
0
10
153.163263
20
31.332700
11
153.694000
21
30.801963
0
LINE
8
0
10
153.694000
20
30.801963
11
154.419000
21
30.607700
0
LINE
8
0
10
154.419000
20
30.607700
11
155.144000
21
30.801963
0
LINE
8
0
10
155.144000
20
30.801963
11
155.674737
21
31.332700
0
LINE
8
0
10
155.674737
20
31.332700
11
155.869000
21
32.057700
0
LINE
8
0
10
155.869000
20
32.057700
11
155.869000
21
32.057700
0
LINE
8
0
10
149.419000
20
64.056900
11
149.419000
21
30.058000
0
LINE
8
0
10
186.419000
20
67.057300
11
152.419000
21
67.057300
0
LINE
8
0
10
189.419000
20
30.058000
11
189.419000
21
64.056900
0
LINE
8
0
10
152.419000
20
27.057700
11
186.419000
21
27.057700
0
LINE
8
0
10
149.419000
20
30.057700
11
149.647361
21
28.909650
0
LINE
8
0
10
149.647361
20
28.909650
11
150.297680
21
27.936380
0
LINE
8
0
10
150.297680
20
27.936380
11
151.270950
21
27.286061
0
LINE
8
0
10
151.270950
20
27.286061
11
152.419000
21
27.057700
0
LINE
8
0
10
152.419000
20
67.057700
11
151.270950
21
66.829339
0
LINE
8
0
10
151.270950
20
66.829339
11
150.297680
21
66.179020
0
LINE
8
0
10
150.297680
20
66.179020
11
149.647361
21
65.205750
0
LINE
8
0
10
149.647361
20
65.205750
11
149.419000
21
64.057700
0
LINE
8
0
10
189.419000
20
64.057700
11
189.190639
21
65.205750
0
LINE
8
0
10
189.190639
20
65.205750
11
188.540320
21
66.179020
0
LINE
8
0
10
188.540320
20
66.179020
11
187.567050
21
66.829339
0
LINE
8
0
10
187.567050
20
66.829339
11
186.419000
21
67.057700
0
LINE
8
0
10
186.419000
20
27.057700
11
187.567050
21
27.286061
0
LINE
8
0
10
187.567050
20
27.286061
11
188.540320
21
27.936380
0
LINE
8
0
10
188.540320
20
27.936380
11
189.190639
21
28.909650
0
LINE
8
0
10
189.190639
20
28.909650
11
189.419000
21
30.057700
 0 
ENDSEC
 0 
EOF